<?xml version="1.0" encoding="utf-8"?>
<!-- Generator: Adobe Adobe Illustrator 24.2.0, SVG Export Plug-In . SVG Version: 6.00 Build 0)  -->
<svg version="1.1" xmlns="http://www.w3.org/2000/svg" xmlns:xlink="http://www.w3.org/1999/xlink" x="0px" y="0px"
	 viewBox="0 0 2800 2800" style="enable-background:new 0 0 2800 2800;" xml:space="preserve">
<style type="text/css">
	.st0{fill:#FDE37F;}
	.st1{fill:#FFFFFF;}
	.st2{fill:#FBCF66;}
</style>
<g id="Layer_1">
	<g>
		<g>
			<g>
				<path class="st0" d="M2385.06,851.33c107.05,237.14,89.35,516.06,2.99,761.37c-86.62,245.15-236.58,462.5-392.52,670.62
					c-402.7,82.41-886.54-8.78-1164.64-120.31c-949.06-379.82-400.86-1608.48,419.76-1125.77
					C1206.74,485.16,2070.5,154.13,2385.06,851.33z"/>
			</g>
		</g>
		<path class="st1" d="M2186.28,1127.47c-8.37,0-16.52-4.33-21.03-12.08c-6.75-11.6-2.82-26.49,8.78-33.24
			c52.82-30.75,70.78-98.74,40.03-151.56c-6.75-11.6-2.82-26.49,8.78-33.24c11.6-6.75,26.49-2.82,33.24,8.78
			c44.24,75.99,18.41,173.8-57.59,218.04C2194.64,1126.4,2190.43,1127.47,2186.28,1127.47z"/>
		<path class="st1" d="M2049.76,1162.65c-26.47,0-53.11-3.43-79.38-10.37c-79.77-21.07-146.56-71.94-188.07-143.24
			c-6.75-11.6-2.82-26.49,8.78-33.24c11.6-6.76,26.48-2.83,33.24,8.78c34.97,60.08,91.25,102.94,158.46,120.69
			c67.21,17.75,137.31,8.27,197.39-26.71c11.6-6.75,26.48-2.82,33.24,8.78c6.75,11.6,2.82,26.49-8.78,33.24
			C2156.83,1148.41,2103.66,1162.65,2049.76,1162.65z"/>
		<path class="st1" d="M1629.1,1287.19c-8.37,0-16.52-4.33-21.03-12.08c-22.39-38.46-28.46-83.33-17.1-126.35
			c11.36-43.02,38.8-79.05,77.26-101.44c79.39-46.22,181.57-19.23,227.79,60.16c6.75,11.6,2.83,26.49-8.78,33.24
			c-11.6,6.76-26.49,2.82-33.24-8.78c-32.73-56.22-105.09-75.33-161.31-42.6c-27.23,15.85-46.66,41.36-54.71,71.83
			c-8.05,30.47-3.75,62.24,12.11,89.47c6.75,11.6,2.82,26.49-8.78,33.24C1637.46,1286.13,1633.25,1287.19,1629.1,1287.19z"/>
		<path class="st1" d="M1609.15,1112.03c-14.28,0-28.65-1.85-42.82-5.59c-43.02-11.36-79.04-38.8-101.43-77.26
			c-6.75-11.6-2.82-26.49,8.78-33.24c11.6-6.75,26.49-2.82,33.24,8.78c15.85,27.23,41.36,46.66,71.83,54.71
			c30.47,8.05,62.24,3.75,89.48-12.11c56.22-32.73,75.33-105.09,42.6-161.31c-6.75-11.6-2.82-26.49,8.78-33.24
			c11.6-6.76,26.49-2.83,33.24,8.78c46.21,79.39,19.23,181.57-60.16,227.79C1666.9,1104.36,1638.22,1112.03,1609.15,1112.03z"/>
		<path class="st1" d="M1485.93,1041.27c-8.37,0-16.52-4.33-21.03-12.08c-46.22-79.39-19.23-181.57,60.16-227.79
			c38.46-22.39,83.33-28.46,126.35-17.1c43.02,11.36,79.05,38.8,101.43,77.26c6.75,11.6,2.82,26.49-8.78,33.24
			c-11.6,6.75-26.49,2.82-33.24-8.78c-32.73-56.22-105.09-75.33-161.31-42.6c-27.23,15.85-46.66,41.36-54.71,71.83
			c-8.05,30.47-3.75,62.24,12.11,89.48c6.75,11.6,2.82,26.49-8.78,33.24C1494.29,1040.2,1490.08,1041.27,1485.93,1041.27z"/>
		<path class="st1" d="M2159.97,832.2c-14.81,0-29.24-7.65-37.22-21.35h0c-11.92-20.48-4.96-46.85,15.52-58.77
			c9.92-5.78,21.5-7.34,32.6-4.41c11.1,2.93,20.39,10.01,26.17,19.93c5.78,9.92,7.34,21.5,4.41,32.6
			c-2.93,11.1-10.01,20.39-19.93,26.17C2174.73,830.32,2167.3,832.2,2159.97,832.2z"/>
		<g>
			<path class="st1" d="M1547.25,963.1c-9.27,0-18.3-4.78-23.29-13.35c0-0.01-0.01-0.01-0.01-0.02c-7.45-12.81-3.09-29.3,9.71-36.76
				c12.83-7.46,29.32-3.11,36.79,9.71c7.46,12.82,3.1,29.32-9.71,36.78C1556.49,961.92,1551.84,963.1,1547.25,963.1z"/>
			<path class="st1" d="M1626.53,916.96c-2.31,0-4.62-0.3-6.91-0.9c-6.94-1.83-12.76-6.26-16.37-12.47v0
				c-3.62-6.21-4.6-13.46-2.76-20.4s6.27-12.77,12.48-16.38c6.2-3.61,13.44-4.59,20.39-2.76c6.95,1.83,12.76,6.26,16.38,12.47
				c7.46,12.82,3.1,29.32-9.71,36.78C1635.86,915.72,1631.23,916.96,1626.53,916.96z"/>
		</g>
		<path class="st1" d="M1946.61,1266.99c-8.37,0-16.52-4.33-21.03-12.08l-214.75-368.9c-15.9-27.27-41.39-46.67-71.82-54.7
			c-30.47-8.05-62.25-3.75-89.48,12.11c-27.23,15.85-46.66,41.36-54.71,71.83c-8.05,30.47-3.75,62.24,12.11,89.48
			c6.75,11.6,2.82,26.49-8.78,33.24c-11.6,6.75-26.48,2.82-33.24-8.78c-22.39-38.46-28.46-83.33-17.1-126.35
			s38.8-79.05,77.26-101.43c38.46-22.39,83.32-28.46,126.35-17.1c42.97,11.34,78.97,38.74,101.37,77.14l0.02,0.03l214.8,368.98
			c6.75,11.6,2.82,26.49-8.78,33.24C1954.97,1265.93,1950.76,1266.99,1946.61,1266.99z"/>
		<path class="st1" d="M1700.68,1410.16c-8.37,0-16.52-4.33-21.03-12.08l-71.58-122.96c-6.75-11.6-2.82-26.49,8.78-33.24
			c11.6-6.75,26.49-2.83,33.24,8.78l71.58,122.96c6.75,11.6,2.82,26.49-8.78,33.24C1709.04,1409.09,1704.83,1410.16,1700.68,1410.16
			z"/>
		<path class="st1" d="M1855.03,968.91c-14.27,0-28.62-1.85-42.78-5.59c-42.99-11.35-78.99-38.77-101.36-77.2
			c-0.01-0.01-0.01-0.03-0.02-0.04l-0.12-0.2c-22.35-38.39-28.42-83.24-17.06-126.23s38.77-79,77.21-101.37
			c79.34-46.18,181.46-19.21,227.64,60.12l0.08,0.14c46.2,79.36,19.25,181.45-60.04,227.65c-0.03,0.02-0.05,0.03-0.08,0.04
			C1912.73,961.24,1884.07,968.91,1855.03,968.91z"/>
		<path class="st0" d="M1752.92,861.68c15.84,27.2,41.32,46.6,71.75,54.64c30.42,8.03,62.14,3.75,89.33-12.06
			c0.02-0.01,0.04-0.03,0.06-0.04c56.17-32.7,75.26-104.99,42.56-161.16l-0.08-0.14c-15.86-27.25-41.35-46.66-71.79-54.7
			c-30.44-8.04-62.19-3.74-89.39,12.1c-27.21,15.84-46.62,41.33-54.66,71.76c-8.04,30.44-3.74,62.19,12.1,89.39L1752.92,861.68z"/>
	</g>
</g>
<g id="Layer_2">
	<g>
		<path class="st2" d="M643.85,982.4c-21.39,12.56-46.16,27.59-72.98,44.45c-339.58,246.78-375.59,881.79,260.02,1136.16
			c278.1,111.53,761.94,202.72,1164.64,120.31C1728.96,2119.49,607.16,2132.72,643.85,982.4z"/>
	</g>
</g>
<g id="Layer_3">
</g>
</svg>
