<?xml version="1.0" encoding="UTF-8"?>
<svg xmlns="http://www.w3.org/2000/svg" width="1800" height="1800" viewBox="0 0 1800 1800">
  <g id="Skin_fill">
    <path id="Skin_fill-2" data-name="Skin_fill" d="M1430.34,1729.7c1.42.14,2.86.34,4.31.61,29.47,5.48,63.13,37.9,64.46,66.97v2.72h-521.53c13.75-52.48,30.18-92.92,56.98-124.89,4.97-5.93,10.29-11.57,16.03-16.94,14.71-13.79,32.1-25.81,52.99-36.44,4.94-2.52,10.08-4.96,15.43-7.33,13.89-6.15,32.95-14.45,49.82-18.95,178.31-39.25,279.06,7.15,301.24,22.91,76.73,54.52-39.73,111.34-39.73,111.34Z" fill="#c5c6ff"/>
  </g>
  <g id="Sleeve_fill">
    <path id="Sleeve_fill-2" data-name="Sleeve_fill" d="M992.59,1668.28c16.19-3.99,35.12-3.13,50.85-3.07-26.8,31.97-52.12,82.3-65.87,134.78h-121.55c11.98-36.16,35.63-68.36,66.56-90.6,18.16-13.06,46.96-35.46,70-41.12Z" fill="#ffc3df"/>
  </g>
  <g id="MelloOutline">
    <g id="MelloOutline-2" data-name="MelloOutline">
      <g id="Mello_Fill" data-name="Mello Fill">
        <path d="M1276.66,1652.65c1.02,38.5-6.47,65.74-18.23,83.35-34.47,51.59-105.68,20.58-107.53-51.89-.7-27.2,9.66-62.73,17.93-88.66-16.87,4.5-35.93,12.8-49.82,18.95-5.35,2.37-10.49,4.81-15.43,7.33h0c9.14-35.44,41.45-68.1,69.83-74.77,28.38-6.66,56.42,5.98,76.81,26.83,2.87,2.93,5.43,6.02,7.73,9.25,14.05,19.72,18.05,44.57,18.71,69.61Z" fill="#fff"/>
        <path d="M1058.31,1515.98c.05.13.1.26.16.39-20.74,39.14-22.91,94.81-7.88,141.8-5.74,5.37-11.06,11.01-16.03,16.94-15.73-.06-32.28,1.98-48.47,5.97l-.19-.73c23.57-32.24,8.29-85.47-22.24-111.22-77.26-65.16-181.81,10.6-220,22.32-24.37,7.48-56.79,6.59-71.35-13.57-14.56-20.15-6.78-52.47,11.41-69.42,47.4-44.19,110.4-71.3,175.08-75.35,12.82-.8,33.19-.18,33.19-.18l-28.29,39.67c-13.7,23.26,12.34,27.16,21.01,27.7,28.94,1.79,73.84-11.92,113.09-25.69-15.15,13.95-40.69,71.59-4.54,58.91,15.81-5.55,63.32-18.5,65.05-17.54Z" fill="#fff"/>
        <path d="M1462.36,1612.13c-12.2,71.33-113.68,91.22-103.88-8.82.66-6.74,1.11-14.22.64-20.2-.92-11.76-5.38-17.73-18.73-.99-25.95-1.56-53-1.27-79.65.75l-2.79.17c-2.3-3.23-4.86-6.32-7.73-9.25-20.39-20.85-48.43-33.49-76.81-26.83-28.38,6.67-60.69,39.33-69.83,74.76h0c-20.89,10.64-38.28,22.66-52.99,36.45-15.03-46.99-12.86-102.66,7.88-141.8-.06-.13-.11-.26-.16-.39-1.73-.96-49.24,11.99-65.05,17.54-36.15,12.68-10.61-44.96,4.54-58.91-39.25,13.77-84.15,27.48-113.09,25.69-8.67-.54-34.71-4.44-21.01-27.7l28.29-39.67,23.51-32.97s-44.46-22.81-45.85-23.55c22.58-49.58,74.43-98.42,103.93-116.4-6.9-95.85-12.42-199,112.11-57.31,27.74-13.72,102.75-21.35,156.28-19.93,3.63-24.72,122.77-190.25,101.51,18.43,248.54,178.93,87.65,169.65,73.9,188.77,58.58,102.38-45.84,48.43-54.6,59.78-6.31,8.19-19.02,23.91-30.1,37.53,46.39-9.72,89.81,11.72,113.6,52.72,15.76,27.18,19.57,51.75,16.08,72.13ZM1332.55,1326.6l-40.01-39.92c7.95,17.54,22.46,32.01,40.01,39.92ZM1292.71,1283.51c5.61-6.01,11.05-11.68,14.01-23.85-15.28-4.76-32.84-1.42-42.19,12.26,8.14,7.03,16.99,5.88,28.18,11.59ZM1289.72,1291.71l-28.9,52.53c16.18-12.66,26.87-32.09,28.9-52.53ZM1146.75,1291.6c0-10.03-8.13-18.17-18.17-18.17s-18.17,8.14-18.17,18.17,8.14,18.17,18.17,18.17,18.17-8.13,18.17-18.17Z" fill="#fff"/>
      </g>
      <g id="Mello_Stroke" data-name="Mello Stroke">
        <path d="M1462.28,1612.07s.05.04.08.06c34.15,24.86,58.44,75.74-28.9,115.59-.04.02-.09.04-.13.06" fill="none" stroke="#000" stroke-linecap="round" stroke-linejoin="round" stroke-width="20"/>
        <path d="M1260.74,1582.87c26.65-2.02,53.7-2.31,79.65-.75,5.41.32,10.76.72,16.06,1.2" fill="none" stroke="#000" stroke-linecap="round" stroke-linejoin="round" stroke-width="20"/>
        <path d="M1260.08,1736.86c58.42-12.82,106.23-13.24,170.26-7.16,1.42.14,2.86.34,4.31.61,29.47,5.48,63.13,37.9,64.46,66.97" fill="none" stroke="#000" stroke-linecap="round" stroke-linejoin="round" stroke-width="20"/>
        <path d="M977.58,1800c13.75-52.48,30.18-92.92,56.98-124.89,4.97-5.93,10.29-11.57,16.03-16.94,14.71-13.79,32.1-25.81,52.99-36.44,4.94-2.52,10.08-4.96,15.43-7.33,13.89-6.15,32.95-14.45,49.82-18.95" fill="none" stroke="#000" stroke-linecap="round" stroke-linejoin="round" stroke-width="20"/>
        <path d="M856.03,1800c11.98-36.16,35.63-68.36,66.56-90.6,18.16-13.06,40.46-22.66,63.5-28.32,16.19-3.99,32.74-6.03,48.47-5.97" fill="none" stroke="#000" stroke-linecap="round" stroke-linejoin="round" stroke-width="20"/>
        <path d="M985.9,1680.35c23.57-32.24,8.29-85.47-22.24-111.22-77.26-65.16-181.81,10.6-220,22.32-24.37,7.48-56.79,6.59-71.35-13.57-14.56-20.15-6.78-52.47,11.41-69.42,47.4-44.19,110.4-71.3,175.08-75.35,12.82-.8,33.19-.18,33.19-.18" fill="none" stroke="#000" stroke-linecap="round" stroke-linejoin="round" stroke-width="20"/>
        <path d="M1241.97,1182.77c3.63-24.72,122.77-190.25,101.51,18.43,248.54,178.93,87.65,169.65,73.9,188.77,58.58,102.38-45.84,48.43-54.6,59.78-6.31,8.19-19.02,23.91-30.1,37.53-10.98,13.5-20.37,24.93-20.37,24.93,0,0-14.46,1.93-37.85-6.49" fill="none" stroke="#000" stroke-linecap="round" stroke-linejoin="round" stroke-width="20"/>
        <path d="M869.62,1376.39s.01.01.03.02c1.39.74,45.85,23.55,45.85,23.55l-23.51,32.97-28.29,39.67c-13.7,23.26,12.34,27.16,21.01,27.7,28.94,1.79,73.84-11.92,113.09-25.69-15.15,13.95-40.69,71.59-4.54,58.91,15.81-5.55,63.32-18.5,65.05-17.54.05.13.1.26.16.39,4.39,10.77,19.35,15.65,29.21,9.42" fill="none" stroke="#000" stroke-linecap="round" stroke-linejoin="round" stroke-width="20"/>
        <path d="M1287.14,1187.64c-10.53-2.8-26.55-4.38-45.17-4.87-53.53-1.42-128.54,6.21-156.28,19.93-124.53-141.69-119.01-38.54-112.11,57.31-29.5,17.98-81.35,66.82-103.93,116.4" fill="none" stroke="#000" stroke-linecap="round" stroke-linejoin="round" stroke-width="20"/>
        <path d="M1058.56,1516.19l-.09.18c-20.74,39.14-22.91,94.81-7.88,141.8" fill="none" stroke="#000" stroke-linecap="round" stroke-linejoin="round" stroke-width="20"/>
        <path d="M1332.68,1487.28c46.39-9.72,89.81,11.72,113.6,52.72,15.76,27.18,19.57,51.75,16.08,72.13-12.2,71.33-113.68,91.22-103.88-8.82.66-6.74,1.11-14.22.64-20.2-.92-11.76-5.38-17.73-18.73-.99" fill="none" stroke="#000" stroke-linecap="round" stroke-linejoin="round" stroke-width="20"/>
        <path d="M1103.58,1621.72c9.14-35.43,41.45-68.09,69.83-74.76,28.38-6.66,56.42,5.98,76.81,26.83,2.87,2.93,5.43,6.02,7.73,9.25,14.05,19.72,18.05,44.57,18.71,69.61,1.02,38.5-6.47,65.74-18.23,83.35-34.47,51.59-105.68,20.58-107.53-51.89-.7-27.2,9.66-62.73,17.93-88.66" fill="none" stroke="#000" stroke-linecap="round" stroke-linejoin="round" stroke-width="20"/>
        <circle cx="1128.58" cy="1291.6" r="18.17" stroke="#000" stroke-linecap="round" stroke-linejoin="round" stroke-width="21.7"/>
        <circle cx="1470.07" cy="1237.37" r="18.17" stroke="#000" stroke-linecap="round" stroke-linejoin="round" stroke-width="21.7"/>
        <path d="M1023.42,1382.23c23.62-5.16,47.23-10.33,70.85-15.49" fill="none" stroke="#000" stroke-linecap="round" stroke-linejoin="round" stroke-width="21.7"/>
        <path d="M1062.63,1422.47c12.17-8.11,24.35-16.23,36.52-24.34" fill="none" stroke="#000" stroke-linecap="round" stroke-linejoin="round" stroke-width="21.7"/>
        <path d="M1507.08,1286.58c12.12-3.62,24.24-7.23,36.35-10.84" fill="none" stroke="#000" stroke-linecap="round" stroke-linejoin="round" stroke-width="21.7"/>
        <path d="M1515.48,1321.98c9.12.29,18.23.57,27.35.86" fill="none" stroke="#000" stroke-linecap="round" stroke-linejoin="round" stroke-width="21.7"/>
        <path d="M1260.82,1344.24c16.18-12.66,26.87-32.09,28.9-52.53" fill="none" stroke="#000" stroke-linecap="round" stroke-linejoin="round" stroke-width="21.7"/>
        <path d="M1332.55,1326.6c-17.55-7.91-32.06-22.38-40.01-39.92" fill="none" stroke="#000" stroke-linecap="round" stroke-linejoin="round" stroke-width="21.7"/>
        <path d="M1306.72,1259.66c-15.28-4.76-32.84-1.42-42.19,12.26,8.14,7.03,16.99,5.88,28.18,11.59,5.61-6.01,11.05-11.68,14.01-23.85Z" fill="none" stroke="#000" stroke-linecap="round" stroke-linejoin="round" stroke-width="21.7"/>
      </g>
    </g>
  </g>
</svg>