<?xml version="1.0" encoding="UTF-8"?>
<svg xmlns="http://www.w3.org/2000/svg" version="1.1" viewBox="0 0 1800 1800">
  <!-- Generator: Adobe Illustrator 29.2.0, SVG Export Plug-In . SVG Version: 2.1.0 Build 108)  -->
  <g id="Cereals">
    <path d="M871.2,1493.82c38.17-86.05,170.37-143.82,380.54-143.82s341.43,58.15,380.54,143.82c84.57,185.26-163.1,461.37-373.27,461.37s-473.43-268.33-387.81-461.37Z" fill="#a9a9f5"/>
    <path d="M1616.87,1480.99c34.56,110.38-163.32,185.01-364.78,185.01s-430.28-86.06-375.98-183.6c91.21-163.84,679.41-197.38,740.76-1.42Z" fill="#c9c7fd"/>
    <path d="M934.75,1491.46c0-62.59,172.18-105.27,319.33-105.27s302.15,34.33,308.5,105.27c5.58,62.38-127.03,113.33-305.21,113.33s-322.62-50.74-322.62-113.33Z" fill="#a9a9f5"/>
    <g id="Layer_10">
      <ellipse cx="1245.85" cy="1519.28" rx="284.8" ry="85.5" fill="#fff"/>
      <path d="M949.34,1643.17c-10.28,42.56,71.39,6.68,81.8,31.47,5.29,12.59,2.77,31.91,2.46,45.57-.31,13.65-4.04,26.96,1.55,39.42,9.14,20.35,38.09,32.61,59.36,25.87,21.27-6.74,36.38-31.58,32.13-53.48-4.68-24.09-11.47-69.98-.52-111.22,3.17-11.94,9.42-22.81,18-31.7,18.16-18.82,38.72-33.82,69.46-44.91,0,0-104.95,44.1-204.05-55-36.62-36.62,6.11-51.98-37-84.28-31.13-23.33-76.1,76.79-98.1,82.17-27.41,6.71-4.13,119.12-19.81,126.62-26.55,12.69,98.98,11.9,94.73,29.47Z" fill="#fff"/>
    </g>
    <path d="M871.2,1493.82c36.33-86.84,170.37-143.82,380.54-143.82s338.54,59.53,380.54,143.82c91.16,182.95-163.1,461.37-373.27,461.37s-472.47-258.98-387.81-461.37Z" fill="none" stroke="#000" stroke-linecap="round" stroke-linejoin="round" stroke-width="20"/>
    <g>
      <path d="M984.21,1405.26c12.7-30.9,44.23-48.31,75.64-35.4,31.41,12.91,43.81,47.3,31.1,78.2-12.7,30.9-43.63,44.23-75.04,31.32s-44.4-43.22-31.7-74.12Z" fill="#99e4fd" stroke="#000" stroke-miterlimit="10" stroke-width="15"/>
      <path d="M1050.13,1402.38c-23.39.41-37.61,36.6-15.5,44.85" fill="none" stroke="#000" stroke-linecap="round" stroke-linejoin="bevel" stroke-width="15"/>
    </g>
    <g>
      <path d="M1337.64,1466.74c-2.76-33.3,13.67-62.84,41.93-65.18,28.26-2.34,50.9,22.96,53.66,56.26,2.76,33.3-14.83,58.93-43.09,61.26-28.26,2.34-49.74-19.05-52.5-52.35Z" fill="#fda9d4" stroke="#000" stroke-miterlimit="10" stroke-width="15"/>
      <path d="M1386.83,1443.04c-17.1,10.72-10.72,34.25,8.84,31.85" fill="none" stroke="#000" stroke-linecap="round" stroke-linejoin="bevel" stroke-width="15"/>
    </g>
    <g>
      <path d="M1634.24,278.16c31.46,9.95,52.96,33.96,45.5,57.55-7.46,23.59-38.35,32.58-69.82,22.63-31.46-9.95-48.98-33.46-41.52-57.06,7.46-23.59,34.37-33.07,65.83-23.13Z" fill="#fae781" stroke="#000" stroke-miterlimit="10" stroke-width="15"/>
      <path d="M1643.47,331.05c-7.99-13.05-33.06-19.27-46.03-10.6" fill="#fae781" stroke="#000" stroke-linecap="round" stroke-linejoin="bevel" stroke-width="15"/>
    </g>
    <g>
      <path d="M1228.64,1181.05c-32.03-20.1-51.8-48.95-38.53-73.64,13.27-24.69,49.54-28.18,82.47-10.49,32.92,17.69,47.47,47.56,34.2,72.25-13.27,24.69-45.27,32.51-78.14,11.88Z" fill="#ffa4d5" stroke="#000" stroke-miterlimit="10" stroke-width="15"/>
      <path d="M1229.5,1120.24c6.15,16.21,32.73,28.41,49,21.48" fill="#ffa4d5" stroke="#000" stroke-linecap="round" stroke-linejoin="bevel" stroke-width="15"/>
    </g>
    <g>
      <path d="M1345.85,403.76c17.69-28.35,47.85-42.64,70.9-28.25,23.05,14.38,25.37,47.75,7.68,76.1-17.69,28.35-46.41,38.82-69.46,24.44-23.05-14.38-26.81-43.94-9.12-72.28Z" fill="#99e4fd" stroke="#000" stroke-miterlimit="10" stroke-width="15"/>
      <path d="M1403.5,410.2c-15.54,4.09-27.85,27.18-21.72,42.64" fill="#99e4fd" stroke="#000" stroke-linecap="round" stroke-linejoin="bevel" stroke-width="15"/>
    </g>
    <g>
      <path d="M1562.41,1466c-28.71,22.58-64.72,26.46-82.61,3.71-17.89-22.75-7.53-57.49,21.18-80.07,28.71-22.58,61.81-23.09,79.7-.33,17.89,22.75,10.45,54.12-18.27,76.7Z" fill="#89ffc1" stroke="#000" stroke-miterlimit="10" stroke-width="15"/>
      <path d="M1505,1436.31c18.64,12.12,51.05-15.86,42.7-32.76" fill="#89ffc1" stroke="#000" stroke-linecap="round" stroke-linejoin="bevel" stroke-width="15"/>
    </g>
    <g>
      <path d="M1722.91,137.74c-28.71,22.58-64.72,26.46-82.61,3.71-17.89-22.75-7.53-57.49,21.18-80.07,28.71-22.58,61.81-23.09,79.7-.33,17.89,22.75,10.45,54.12-18.27,76.7Z" fill="#ffa4d5" stroke="#000" stroke-miterlimit="10" stroke-width="15"/>
      <path d="M1665.51,108.05c18.64,12.12,51.05-15.86,42.7-32.76" fill="#ffa4d5" stroke="#000" stroke-linecap="round" stroke-linejoin="bevel" stroke-width="15"/>
    </g>
    <g>
      <path d="M1444.45,1020.43c-18.47-32.49-17.84-69,6.53-82.85,24.37-13.85,56.94,2.48,75.42,34.97,18.47,32.49,14.91,65.52-9.46,79.37-24.37,13.85-54.01,1-72.49-31.49Z" fill="#fae781" stroke="#000" stroke-miterlimit="10" stroke-width="15"/>
      <path d="M1477.52,969.39c-3.41,17,12.61,41.47,30.07,44.25" fill="#fae781" stroke="#000" stroke-linecap="round" stroke-linejoin="bevel" stroke-width="15"/>
    </g>
    <g>
      <path d="M1584.96,891.34c-36.1-5.58-64.32-24.02-61.11-44.75,3.2-20.72,34.78-31.17,70.88-25.59,36.1,5.58,59.9,23.96,56.7,44.69-3.2,20.72-30.37,31.23-66.47,25.64Z" fill="#83ffc1" stroke="#000" stroke-miterlimit="10" stroke-width="15"/>
      <path d="M1565.25,838.6c4.75,16.16,47.23,21.3,53.11,8.68" fill="#83ffc1" stroke="#000" stroke-linecap="round" stroke-linejoin="bevel" stroke-width="15"/>
    </g>
    <g>
      <path d="M1176.06,1561.82c5.41-14.5,19.41-28.26,38.46-36.82,30.48-13.69,59.31-8.29,69.21,13.74,9.9,22.04-4.3,46.76-34.78,60.46-15.24,6.85-30.91,9.49-44,7.67" fill="#fee782" stroke="#000" stroke-linecap="round" stroke-miterlimit="10" stroke-width="15"/>
      <path d="M1218.13,1568.32c12.65,2.21,22.6-8.85,25.25-20.65" fill="none" stroke="#000" stroke-linecap="round" stroke-linejoin="bevel" stroke-width="15"/>
    </g>
    <g>
      <path d="M1098.45,1592.76c-6.45-7.22-10.1-16.06-9.76-26.02.92-26.57,28.65-44.82,62.04-43.67,33.39,1.15,56.83,20.39,55.92,46.95-.46,13.28-6.61,24.33-16.83,31.91" fill="#89ffc1" stroke="#000" stroke-linecap="round" stroke-miterlimit="10" stroke-width="15"/>
      <path d="M1130.8,1562.66c10.03,11.45,37.04,9.65,36.59-2.57" fill="none" stroke="#000" stroke-linecap="round" stroke-linejoin="bevel" stroke-width="15"/>
    </g>
    <path d="M1568.6,1471.46c26.69,72.52-141.76,139.37-316.63,139.37s-347.52-57.42-316.63-139.37" fill="none" stroke="#000" stroke-linecap="round" stroke-linejoin="round" stroke-width="20"/>
    <ellipse cx="1783.22" cy="1278.54" rx="56.05" ry="57.95" fill="#fff"/>
    <ellipse cx="1783.22" cy="1278.54" rx="56.05" ry="57.95" fill="#fff"/>
    <path d="M1314.21,1514.32c-3.81-12.31,10.83-43.19,36.36-35.49,34.31,10.35,36.99,50.17,73.09,36.68,9.49-3.55,16.1,11.19,19.38,20.78,1.85,5.41-.15,11.59-3.88,15.92s-8.97,7.08-14.28,9.21c-19.75,7.91-42.43,8.27-62.42.98-19.99-7.29-37.12-22.16-48.25-48.08Z" fill="#fff"/>
    <ellipse cx="1530.65" cy="1197.63" rx="26.03" ry="26.92" fill="#fff"/>
  </g>
  <g id="Skin_fill">
    <g id="Skin_fill-1" data-name="Skin_fill">
      <path d="M1783.22,1805.59c-11.83-44.88-35.61-106.76-64.33-132.16-28.72-25.4-61.44-37.95-93.2-40.24-31.76-2.29-62.68,5.32-91.99,17.74-8.59,3.64-17.17,7.77-24.4,14.91-7.23,7.14-13.06,17.66-14.58,30.65-1.73,14.75,2.35,31.13,9.03,44.29,6.67,13.16,15.72,23.53,24.28,33.96-12.86,10.13-20.68,29.74-18.53,52.33" fill="#fed0b7"/>
      <path d="M576.4,1806.43c6.34-46.21,32.62-88.55,68.51-118.35s80.81-47.58,126.85-55.08c46.04-7.5,93.26-5.1,139.31,2.31,13.5,2.17,27.1,4.83,39.45,10.68,12.36,5.85,23.5,15.27,28.92,27.82,6.15,14.27,4.19,31.09-2.36,45.18-6.56,14.09-17.29,25.8-27.28,37.5,21.36,7.87,37.64,25.92,40.04,48.55" fill="#fed0b7"/>
    </g>
  </g>
  <g id="Sleeve_fill">
    <path id="Sleeve_fill-1" data-name="Sleeve_fill" d="M480.84,1800c15.29-24.65,31.57-49.05,53.72-67.78,22.15-18.73,51.35-31.03,80.06-26.84-20.57,28.26-33.17,60.13-38.84,94.62" fill="#fff"/>
  </g>
  <g id="Outline">
    <g>
      <path d="M478.81,1804.47c12.24-27.7,29.1-53.95,52.68-72.95,23.58-19,54.48-30.13,84.45-25.8" fill="none" stroke="#000" stroke-linecap="round" stroke-linejoin="round" stroke-width="20"/>
      <path d="M575.01,1805.04c10.07-72.67,60.39-130.29,128.87-156.62,38.27-14.72,79.91-17.71,120.87-19.61,34.53-1.6,69.87-2.44,102.84,7.93,13.72,4.31,27.03,10.66,37.6,20.41,10.57,9.75,18.19,23.18,19,37.54,1.38,24.63-17.33,46.53-39.14,58.05" fill="none" stroke="#000" stroke-linecap="round" stroke-linejoin="round" stroke-width="20"/>
      <path d="M749.66,1766.83c47.47-20.71,101.24-19.32,152.99-17.43,18.74.68,38.21,1.57,54.78,10.36,17,9.01,29.36,26.28,32.41,45.28" fill="none" stroke="#000" stroke-linecap="round" stroke-linejoin="round" stroke-width="20"/>
    </g>
    <g>
      <path d="M1786.19,1805.66c-14.75-91.04-63.2-146.43-112.95-164.81-27.8-10.27-55.91-8.59-83.38-5.92-23.16,2.25-46.73,5.35-66.88,19.23-8.38,5.78-16.16,13.52-21.56,24.3-5.4,10.79-8.23,24.88-6.4,39.13,3.15,24.44,19.17,43.96,35.53,52.9" fill="none" stroke="#000" stroke-linecap="round" stroke-linejoin="round" stroke-width="19.29"/>
      <path d="M1662.44,1762.72c-34.89-15.15-70.31-7.81-104.32-.21-12.31,2.75-25.08,5.79-34.61,16.3-9.78,10.78-15.12,29.18-14.01,48.26" fill="none" stroke="#000" stroke-linecap="round" stroke-linejoin="round" stroke-width="19.29"/>
    </g>
  </g>
</svg>