<?xml version="1.0" encoding="UTF-8"?>
<svg xmlns="http://www.w3.org/2000/svg" width="1800" height="1800" xmlns:xlink="http://www.w3.org/1999/xlink" viewBox="0 0 1800 1800">
  <defs>
    <linearGradient id="Sfumatura_senza_nome_13" data-name="Sfumatura senza nome 13" x1="-1657.64" y1="2470.24" x2="-1369.14" y2="2381.89" gradientTransform="translate(1845.64 -891.79) rotate(-13.1) scale(.87)" gradientUnits="userSpaceOnUse">
      <stop offset="0" stop-color="#7fc1f4"/>
      <stop offset=".11" stop-color="#7dd8c0"/>
      <stop offset=".2" stop-color="#7de8a0"/>
      <stop offset=".24" stop-color="#7dee94"/>
      <stop offset=".5" stop-color="#fbea94"/>
      <stop offset=".62" stop-color="#ffafbe"/>
      <stop offset=".85" stop-color="#9bb0f8"/>
    </linearGradient>
    <linearGradient id="linear-gradient" x1="-1512.04" y1="2287.47" x2="-1086.59" y2="2287.47" gradientTransform="translate(1845.64 -891.79) rotate(-13.1) scale(.87)" gradientUnits="userSpaceOnUse">
      <stop offset="0" stop-color="#7fc1f4"/>
      <stop offset=".15" stop-color="#7dee94"/>
      <stop offset=".21" stop-color="#8ded94"/>
      <stop offset=".33" stop-color="#b7ec94"/>
      <stop offset=".49" stop-color="#fbea94"/>
      <stop offset=".55" stop-color="#fbde9c"/>
      <stop offset=".66" stop-color="#fdc0b1"/>
      <stop offset=".71" stop-color="#ffafbe"/>
      <stop offset=".76" stop-color="#f5afc3"/>
      <stop offset=".84" stop-color="#ddafd1"/>
      <stop offset=".94" stop-color="#b5afe8"/>
      <stop offset="1" stop-color="#9bb0f8"/>
    </linearGradient>
  </defs>
  <g id="Skin_fill">
    <path id="Skin_fill-2" data-name="Skin_fill" d="M558.14,1811.14c-23.15-46.87.91-104.58,37.03-142.36,36.13-37.78,83.2-63.53,120.23-100.43,37.02-36.9,63.74-92.71,44.03-141.12-8.73-21.44-16.19-55.57-4.65-75.44,13.14-22.63,47.59-29.71,73.94-30.35,37.12-.9,78.41,34.87,85.42,70.49,2.34,11.87-6.95,20.12-11.05,31.8-19.23,54.73-23.45,114.64-12.08,171.53-55.84-16.18-121.35,20.56-136.65,76.65,35.67-15.31,74.27-30.95,112.21-22.72,37.94,8.23,70.04,52.09,51.42,86.15,50.53-17.38,111.25,29.26,107.5,82.56" fill="#fed0b7"/>
  </g>
  <g id="Sleeve_fill">
    <path id="Sleeve_fill-2" data-name="Sleeve_fill" d="M434.93,1807.15c13.26-63.26,36.9-126.59,82.21-172.69,45.3-46.11,115.81-71.45,176.74-49.87-82.29,38.01-136.99,128.95-134.99,219.63" fill="#fff"/>
  </g>
  <g id="Layer_4" data-name="Layer 4">
    <path d="M1028.54,1801.15c-.38-45.68-52.17-78.67-94.05-60.42-1.56-38.3-27.34-74.55-63.02-88.58-35.67-14.03-79.25-5.07-106.48,21.91,4.5-57.63,72.63-100.41,126.49-79.43.84-15.93,1.69-31.87,2.53-47.8,25.28,2.08,50.56,4.16,75.84,6.24,8.3,20.28,15.83,34.15,9.64,65.17-4.74,23.72,14.14,52.7,37.54,58.86,23.39,6.16,52.17-9.74,53.69-33.89,2.97-47.1,5.94-94.2,8.91-141.3,95.57-19.63,191.14-39.26,286.71-58.88,47.24-9.7,89.95-39.76,115.02-80.97,66.69,136.16,91.14,289.08,69.17,439.09" fill="#fff"/>
    <g>
      <path d="M1082.52,1387.1c2.42,2.44,5.03,4.88,7.82,7.37-76.84,26.94-109.51,74.06-23.86,101.13,6.1,184.46-.22,192.84-74.42,164.26-6.04-2.33-12.71-99.99-18.23-100.62-39.07-4.46-62.74-15.19-73.82-35.14-29.49-53.07,25.6-144.61,82.5-155.41-47.11-37.05-21.2-84.01,67.26-111.18l.41-.59c11.37,7.74,28.14,13.73,51,17.24v.02c-30.81,13.24-74.61,56.54-18.66,112.92Z" fill="url(#Sfumatura_senza_nome_13)"/>
      <path d="M1403.96,1299.75c68.16-6.28,111.89,80.46,16.94,127.07-9.85,4.83-21.18,9.23-34.15,13.06-45.04,13.28-106.94,30.59-168.54,39.63-52.74,7.74-107.09,5.5-135.01,18.41-14.58,6.74-19.4,22.73-18.49,35.48-85.65-27.07-66.34-127.16,25.62-138.93-2.79-2.49-5.4-4.93-7.82-7.37-55.95-56.38-12.14-99.68,18.67-112.92v-.02c-22.87-3.51-39.64-9.5-51.01-17.24-52.58-35.8,10.77-108.92,121.08-145.3-101.68,115.44,148.6,80.31,213.49,136.58,17.21,14.92,22.93,33.34,19.21,51.54Z" fill="url(#linear-gradient)"/>
    </g>
    <g>
      <path d="M1253.3,1559.78c-30.41,5.37-60.81,10.74-91.07,17.32-2.06,12.15,4.52,25.27,15.49,30.88s25.46,3.26,34.1-5.52c8.64-8.79,10.74-23.31,4.95-34.19" stroke="#000" stroke-linecap="round" stroke-linejoin="round" stroke-width="23.73"/>
      <path d="M1677.02,1474.05c-30.41,5.37-60.81,10.74-91.07,17.32-2.06,12.15,4.52,25.27,15.49,30.88,10.97,5.61,25.46,3.26,34.1-5.52,8.64-8.79,10.74-23.31,4.95-34.19" stroke="#000" stroke-linecap="round" stroke-linejoin="round" stroke-width="23.73"/>
      <path d="M1049.77,1257.52c-88.47,27.17-114.38,74.13-67.26,111.18-29.36,5.57-47.03,15.81-62.65,34.9-30.36,37.1-31.74,117.4-26.1,189.17" fill="none" stroke="#000" stroke-linecap="round" stroke-linejoin="round" stroke-width="21.97"/>
      <path d="M1017.38,1382.26c22.11,2.91,43.67,4.46,65.14,4.85,33.87.64,67.5-1.59,102.75-5.81" fill="none" stroke="#000" stroke-linecap="round" stroke-linejoin="round" stroke-width="21.97"/>
      <path d="M1078.03,1494.94c108.36-5.76,204.97-24.46,308.72-55.06,12.96-3.82,24.3-8.23,34.15-13.06,94.95-46.62,51.22-133.35-16.94-127.07" fill="none" stroke="#000" stroke-linecap="round" stroke-linejoin="round" stroke-width="21.97"/>
      <path d="M1336.63,1365.6c37.59-14.37,62.05-39.9,67.32-65.85,3.72-18.2-2.01-36.62-19.21-51.54-64.89-56.27-315.16-21.14-213.49-136.58-110.31,36.37-173.66,109.5-121.08,145.3,11.37,7.74,28.14,13.73,51,17.24,8.73,1.35,18.35,2.31,28.89,2.89" fill="none" stroke="#000" stroke-linecap="round" stroke-linejoin="round" stroke-width="21.97"/>
      <path d="M895.69,1533.46c29.47,32.39,71.39,6.68,81.8,31.47,5.29,12.59,2.77,31.91,2.46,45.57-.31,13.65-4.04,26.96,1.55,39.42,9.14,20.35,38.09,32.61,59.36,25.87,21.27-6.74,36.38-31.58,32.13-53.48-8.27-42.59-7.62-85.86,5.04-127.36" fill="none" stroke="#000" stroke-linecap="round" stroke-linejoin="round" stroke-width="21.97"/>
      <path d="M1475.25,1351.78c69.7,125.05,115.12,311.08,72.24,449.37" fill="none" stroke="#000" stroke-linecap="round" stroke-linejoin="round" stroke-width="21.97"/>
      <line x1="1371.25" y1="1559.78" x2="1458.49" y2="1544.35" fill="none" stroke="#000" stroke-linecap="round" stroke-linejoin="round" stroke-width="21.97"/>
      <path d="M554.79,1801.15c0-57.95,17.88-117.09,51.74-154.7,39.34-43.7,83.09-46.63,120.27-80.97,37.18-34.34,48.53-111.6,28.39-158.03-19.2-44.25-1.33-69.3,44.83-83.32,49.7-15.09,96.39,22.22,121.46,77.32" fill="none" stroke="#000" stroke-linecap="round" stroke-linejoin="round" stroke-width="21.97"/>
      <path d="M434.05,1801.15c4.96-65.07,39.13-129.68,89.5-171.19,53.92-44.44,117.94-58.1,182.59-49.18" fill="none" stroke="#000" stroke-linecap="round" stroke-linejoin="round" stroke-width="21.97"/>
      <path d="M709.65,1664.97c24.92,3.6,47.37,3.72,69.08-1.82,21.71-5.55,43.96-20.83,66.22-23.39,22.26-2.56,43.71,7.2,55.05,15.96,24.25,18.75,28.88,58.68,21.48,77.33-18.07,45.58-77.98,66.42-119.18,79.27" fill="none" stroke="#000" stroke-linecap="round" stroke-linejoin="round" stroke-width="21.97"/>
      <path d="M919.1,1739.67c22.08-9.75,51.28-10.43,72.49,1.08s33.75,31.89,36.95,60.41" fill="none" stroke="#000" stroke-linecap="round" stroke-linejoin="round" stroke-width="21.97"/>
      <path d="M750.42,1667.31c27.04-59.03,86.39-94.87,159.94-69.85" fill="none" stroke="#000" stroke-linecap="round" stroke-linejoin="round" stroke-width="21.97"/>
      <g>
        <path d="M1472.76,1086.12c8.95-8.26,11.88-20.2,21.98-23.69,2.4-.84,8.33,2.03,7.81,4.5-2.6,12.28-25.94,19.33-29.79,19.19Z" fill="none" stroke="#fff" stroke-linecap="round" stroke-linejoin="round" stroke-width="26.96"/>
        <path d="M1460.68,1078.15c-5.8-8.97-9.47-17.01-6.57-27.31.7-2.44,5.78-2.77,7.52-.92,8.59,9.14,4.07,30.05-.94,28.23Z" fill="none" stroke="#fff" stroke-linecap="round" stroke-linejoin="round" stroke-width="26.96"/>
        <circle cx="1459.04" cy="1101.27" r="10.37" stroke="#000" stroke-linecap="round" stroke-linejoin="round" stroke-width="26.96"/>
      </g>
    </g>
  </g>
</svg>