<?xml version="1.0" encoding="UTF-8"?>
<svg xmlns="http://www.w3.org/2000/svg" width="1800" height="1800" viewBox="0 0 1800 1800">
  <g id="Popcorn">
    <g id="Popcorn-2" data-name="Popcorn">
      <polyline points="1152.78 1503.14 1181.08 1800.83 1408.07 1800.83 1635.64 1799.92 1636.82 1501.39" fill="#fbe689"/>
      <polyline points="1159.8 1502.27 1218.55 1508.4 1239.36 1800 1181.08 1800.83" fill="#feb3a2"/>
      <polyline points="1281.69 1530.33 1293.59 1780.67 1366.37 1800.83 1354.47 1545.23" fill="#feb3a2"/>
      <polyline points="1434.73 1530.33 1442.77 1800.83 1519.2 1799.92 1507.04 1538.22" fill="#feb3a2"/>
      <polyline points="1576.32 1502.27 1582.96 1799.92 1635.64 1799.92 1642.09 1505.77" fill="#feb3a2"/>
      <path d="M1596.21,1402.5c4.13,16.17,4.08,34.15-4.15,48.68-8.22,14.53-25.97,24.29-44.67,20.32,6.26,21.04-3.99,45.79-23.31,56.23-19.31,10.44-45.64,5.47-64-11.93,3.67,10.4-3.15,22.61-13.31,26.9-10.16,4.29-22.3,1.64-31.33-4.69-9.02-6.33-15.32-15.87-23.53-28.94-1.65,10.55-9.33,19.38-18.43,24.98-9.09,5.6-19.57,8.45-29.88,11.23-11.26,3.04-23.02,6.1-34.44,3.74-13.43-2.77-24.5-12.88-31.16-24.86-6.66-11.98-9.44-25.72-16.53-41.89-1.35,13.68-12.45,25.83-25.96,28.4s-28.29-4.64-34.74-17.95c-9.49,3.3-19.14,6.53-29.16,7.23-10.02.7-20.6-1.38-28.4-7.7-11.32-9.17-14.59-25.58-11.82-39.89,2.77-14.31,10.54-27.07,18.97-37.83-27.13-19.39-38.48-58.11-26.11-89.07,4.64-11.63,12.53-22.31,23.49-28.37,16.2-8.94,38.14-5.84,54.4,9.03-9.85-23.32-6-52.42,11.24-70.95,17.24-18.54,47.55-24.19,73.89-7.14-4.53-17.64,1.15-37.01,12.7-51.09,11.55-14.08,28.39-23.18,46.03-27.69,21.68-5.54,45.85-4.22,64.89,7.54,19.03,11.76,31.47,35.13,33.8,57.25,7.89-18.68,25.71-32.82,45.69-36.27,19.99-3.44,41.51,3.91,55.2,18.88,13.69,14.96,19.12,37.05,22.45,53.27,15.73-13.6,40.75-15.03,57.93-3.3,14.99,10.23,23.07,28.84,22.95,46.99-.12,18.15-7.7,35.7-14.91,47.34,13.22-2.55,27.37-4.23,39.77,1.02,15.16,6.43,24.97,23.62,22.78,39.95-2.19,16.32-16.19,30.32-37.27,37.72,14.08,9.1,27.64,23.09,26.67,39.82-.81,14.01-12.06,25.69-24.96,31.22-12.9,5.54-27.3,6.13-41.32,6.64-15.51.57-56.62,3.5-72.14,4.07" fill="#fdead3"/>
      <path d="M1653.85,1665.97c11.6,6.26,25.5,8.14,38.35,5.21,12.85-2.94,24.55-10.67,32.28-21.35,3.88,9.93,4.23,21.42-.18,31.12-4.41,9.7-13.89,17.22-24.51,18.16-10.03.89-19.61-3.8-28.58-8.38-6.86-3.5-14.48-8.01-17.37-24.76Z" fill="#fcdab1"/>
      <path d="M1339.97,1418.02c11.86,19.95,38.45,29.71,60.39,22.16,21.95-7.54,36.92-31.59,34-54.61-8.93,15.91-23.83,28.37-41.07,34.33s-36.66,5.38-53.33-1.88Z" fill="#fcdab1"/>
      <path d="M1333.46,1351.67c1.52,8.59,9.63,14.71,18.06,16.94s17.31,1.44,26.03,1.34c2.38-.03,4.84.01,7.04.94s4.1,2.95,4.17,5.33c.1,3.21-2.94,5.58-5.83,7-10.42,5.11-23.2,5.09-33.6-.05-10.4-5.15-18.17-15.3-15.86-31.5Z" fill="#fcdab1"/>
      <path d="M1595.94,1395.79c6.56-.35,11.4-6.02,14.87-12.8,5.06-9.89,16.98-13.76,27.16-9.3,3.96,1.74,8.01,2.63,11.6,1.74,12.77-3.14,22.75-12.79,32.08-22.06,10.15,11.3,13.26,28.43,7.72,42.57s-19.45,24.62-34.57,26.03c7.56,4.35,15.15,8.99,20.94,15.52,5.79,6.53,9.62,15.31,8.32,23.94-2.23,14.84-17.79,23.47-32.01,28.25-27.43,9.21-56.79,12.61-85.6,9.89-5.22-.49-10.99-1.45-13.17-7.28-1.4-3.74-.52-7.92,1.86-11.13,5.58-7.53,14.72-8.97,22.69-12.49,20.45-9.01,32.46-33.84,18.1-72.88Z" fill="#fcdab1"/>
      <line x1="1635.64" y1="1799.92" x2="1639.15" y2="1500.18" fill="none" stroke="#000" stroke-linecap="round" stroke-linejoin="round" stroke-width="20"/>
      <line x1="1158.2" y1="1508.5" x2="1180.05" y2="1789.93" fill="none" stroke="#000" stroke-linecap="round" stroke-linejoin="round" stroke-width="20"/>
      <g>
        <path d="M1596.21,1402.5c4.13,16.17,4.08,34.15-4.15,48.68-8.22,14.53-25.97,24.29-44.67,20.32,6.26,21.04-3.99,45.79-23.31,56.23-19.31,10.44-45.64,5.47-64-11.93,3.67,10.4-3.15,22.61-13.31,26.9-10.16,4.29-22.3,1.64-31.33-4.69-9.02-6.33-15.32-15.87-23.53-28.94-1.65,10.55-9.33,19.38-18.43,24.98-9.09,5.6-19.57,8.45-29.88,11.23-11.26,3.04-23.02,6.1-34.44,3.74-13.43-2.77-24.5-12.88-31.16-24.86-6.66-11.98-9.44-25.72-16.53-41.89-1.35,13.68-12.45,25.83-25.96,28.4s-28.29-4.64-34.74-17.95c-9.49,3.3-19.14,6.53-29.16,7.23-10.02.7-20.6-1.38-28.4-7.7-11.32-9.17-14.59-25.58-11.82-39.89,2.77-14.31,10.54-27.07,18.97-37.83-27.13-19.39-38.48-58.11-26.11-89.07,4.64-11.63,12.53-22.31,23.49-28.37,16.2-8.94,38.14-5.84,54.4,9.03-9.85-23.32-6-52.42,11.24-70.95,17.24-18.54,47.55-24.19,73.89-7.14-4.53-17.64,1.15-37.01,12.7-51.09,11.55-14.08,28.39-23.18,46.03-27.69,21.68-5.54,45.85-4.22,64.89,7.54,19.03,11.76,31.47,35.13,33.8,57.25,7.89-18.68,25.71-32.82,45.69-36.27,19.99-3.44,41.51,3.91,55.2,18.88,13.69,14.96,19.12,37.05,22.45,53.27,15.73-13.6,40.75-15.03,57.93-3.3,14.99,10.23,23.07,28.84,22.95,46.99-.12,18.15-7.7,35.7-14.91,47.34,13.22-2.55,27.37-4.23,39.77,1.02,15.16,6.43,24.97,23.62,22.78,39.95-2.19,16.32-16.19,30.32-37.27,37.72,14.08,9.1,27.64,23.09,26.67,39.82-.81,14.01-12.06,25.69-24.96,31.22-12.9,5.54-27.3,6.13-41.32,6.64-15.51.57-56.62,3.5-72.14,4.07" fill="none" stroke="#000" stroke-linecap="round" stroke-linejoin="round" stroke-width="20"/>
        <path d="M1650.15,1669.08c-1.58,4.36-5.82,7.43-10.37,8.36s-9.32-.05-13.56-1.95c-7.29-3.26-13.39-9.41-15.87-16.99-2.47-7.59-.98-16.52,4.39-22.42,5.37-5.9,14.62-8.18,24.56-6.01-.12-5.56-1.89-10.94-2.8-16.42s-.81-11.53,2.38-16.08c2.29-3.27,5.89-5.35,9.47-7.11,8.34-4.1,17.26-7.02,26.4-8.65,4.2-.75,8.98-1.08,12.27,1.63,6.39,5.26,1.77,16.54,10.96,23.21,9.84-8.85,24.78-11.94,37.01-6.86,12.22,5.08,20.71,18.48,19.19,31.63-1.52,13.15-13.53,24.52-25.84,22.98,3.87,13.28-.06,28.52-9.86,38.28-9.8,9.75-25.06,13.61-38.32,9.69-13.26-3.93-23.96-15.48-30.03-33.28Z" fill="#fdead3"/>
        <path d="M1650.15,1669.08c-1.58,4.36-5.82,7.43-10.37,8.36s-9.32-.05-13.56-1.95c-7.29-3.26-13.39-9.41-15.87-16.99-2.47-7.59-.98-16.52,4.39-22.42,5.37-5.9,14.62-8.18,24.56-6.01-.12-5.56-1.89-10.94-2.8-16.42s-.81-11.53,2.38-16.08c2.29-3.27,5.89-5.35,9.47-7.11,8.34-4.1,17.26-7.02,26.4-8.65,4.2-.75,8.98-1.08,12.27,1.63,6.39,5.26,1.77,16.54,10.96,23.21,9.84-8.85,24.78-11.94,37.01-6.86,12.22,5.08,20.71,18.48,19.19,31.63-1.52,13.15-13.53,24.52-25.84,22.98,3.87,13.28-.06,28.52-9.86,38.28-9.8,9.75-25.06,13.61-38.32,9.69-13.26-3.93-23.96-15.48-30.03-33.28Z" fill="none" stroke="#000" stroke-linecap="round" stroke-linejoin="round" stroke-width="20"/>
        <path d="M1339.76,1418.41c-13.06-2.15-24.39-13.26-25.92-26.4s7.56-26.97,19.89-28.28c-6.8-12.04-6.46-27.78.85-39.52,7.31-11.74,21.29-18.98,35.09-18.19,13.8.79,26.86,9.59,36.84,25.53.54-4.61,3.97-8.57,8.18-10.51s9.08-2.08,13.64-1.21c7.84,1.5,15.19,6.09,19.33,12.92,4.14,6.82,4.74,15.86.86,22.83-3.88,6.97-12.36,11.3-22.54,11.47,1.39,5.38,4.34,10.21,6.48,15.35" fill="none" stroke="#000" stroke-linecap="round" stroke-linejoin="round" stroke-width="20"/>
      </g>
    </g>
  </g>
  <g id="Skin_fill">
    <path id="Skin_fill-2" data-name="Skin_fill" d="M1484.18,1807.28v2.72h-521.53c13.75-52.48,30.18-92.92,56.98-124.89,4.97-5.93,10.29-11.57,16.03-16.94,14.71-13.79,32.1-25.81,52.99-36.44,4.94-2.52,10.08-4.96,15.43-7.33,13.89-6.15,32.95-14.45,49.82-18.95,208.7-26.7,247.06-4.99,313.25,29.41,21.62,11.24,17.27,65.97-47.43,105.45,29.47,5.48,63.13,37.9,64.46,66.97Z" fill="#fed0b7"/>
  </g>
  <g id="Sleeve_fill">
    <path id="Sleeve_fill-2" data-name="Sleeve_fill" d="M977.66,1678.28c16.19-3.99,35.12-3.13,50.85-3.07-26.8,31.97-52.12,82.3-65.87,134.78h-121.55c11.98-36.16,35.63-68.36,66.56-90.6,18.16-13.06,46.96-35.46,70-41.12Z" fill="#fff"/>
  </g>
  <g id="Layer_4" data-name="Layer 4">
    <g>
      <path d="M1153.9,1605.45c55.87-16.03,145.61-14.89,171.56-13.33,5.01.3,58.42,2.43,109.68,24.32,12.58,5.37,23.7,13.82,31.81,24.84,19.86,26.97,20.2,65.13-48.42,96.44-.04.02-.09.04-.13.06" fill="none" stroke="#000" stroke-linecap="round" stroke-linejoin="round" stroke-width="20"/>
      <path d="M1245.15,1746.86c58.42-12.82,106.23-13.24,170.26-7.16,1.42.14,2.86.34,4.31.61,29.47,5.48,63.13,37.9,64.46,66.97" fill="none" stroke="#000" stroke-linecap="round" stroke-linejoin="round" stroke-width="20"/>
      <path d="M962.65,1810c13.75-52.48,30.18-92.92,56.98-124.89,4.97-5.93,10.29-11.57,16.03-16.94,14.71-13.79,32.1-25.81,52.99-36.44,4.94-2.52,10.08-4.96,15.43-7.33,13.89-6.15,32.95-14.45,49.82-18.95" fill="none" stroke="#000" stroke-linecap="round" stroke-linejoin="round" stroke-width="20"/>
      <path d="M841.1,1810c11.98-36.16,35.63-68.36,66.56-90.6,18.16-13.06,40.46-22.66,63.5-28.32,16.19-3.99,32.74-6.03,48.47-5.97" fill="none" stroke="#000" stroke-linecap="round" stroke-linejoin="round" stroke-width="20"/>
    </g>
  </g>
</svg>