<?xml version="1.0" encoding="utf-8"?>
<!-- Generator: Adobe Adobe Illustrator 24.2.0, SVG Export Plug-In . SVG Version: 6.00 Build 0)  -->
<svg version="1.1" xmlns="http://www.w3.org/2000/svg" xmlns:xlink="http://www.w3.org/1999/xlink" x="0px" y="0px"
	 viewBox="0 0 1800 1800" style="enable-background:new 0 0 1800 1800;" xml:space="preserve">
<style type="text/css">
	.st0{fill:#E2CDCC;}
	.st1{fill:url(#SVGID_1_);}
	.st2{fill:#F2E7EB;}
	.st3{fill:none;stroke:#000000;stroke-width:19.2857;stroke-linecap:round;stroke-linejoin:round;stroke-miterlimit:10;}
	.st4{fill:#FFA4D4;}
	.st5{fill:#FFC897;}
	.st6{fill:#FCE782;}
	.st7{fill:#B3FFC7;}
	.st8{fill:#FEE881;}
	.st9{fill:none;stroke:#FFFFFF;stroke-width:25.7143;stroke-linecap:round;stroke-linejoin:round;stroke-miterlimit:10;}
	.st10{fill:#FED0B7;}
	.st11{fill:#FFFFFF;}
	.st12{fill:none;stroke:#000000;stroke-width:19.2857;stroke-linejoin:round;stroke-miterlimit:10;}
</style>
<g id="Candle">
	<g id="Layer_4">
		<g id="Layer_8">
		</g>
	</g>
	<g>
		<path class="st0" d="M997.22,1530.34c0.57,63.73,1.15,127.46,1.72,191.2c0.12,13.67,0.38,27.92,6.67,40.05
			c9.83,18.95,31.6,27.97,51.89,34.59c44.33,14.47,90.29,24.7,136.88,26.61c46.59,1.91,93.9-4.69,136.88-22.78
			c24.71-10.4,48.71-25.37,62.69-48.24c15.38-25.16,16.63-56.17,17.44-85.64c1.3-47.08,2.59-94.17,3.89-141.25"/>
		<linearGradient id="SVGID_1_" gradientUnits="userSpaceOnUse" x1="994.8483" y1="1423.7261" x2="1419.7562" y2="1423.7261">
			<stop  offset="0" style="stop-color:#80AEFF"/>
			<stop  offset="0.3229" style="stop-color:#E7ABD0"/>
			<stop  offset="0.5878" style="stop-color:#FCEC90"/>
			<stop  offset="0.8528" style="stop-color:#79E5CC"/>
			<stop  offset="1" style="stop-color:#80BDF7"/>
		</linearGradient>
		<path class="st1" d="M995.19,1523.31c4.25-23.82,0.62-48.23-0.21-72.42c-0.83-24.18,1.7-49.93,16.19-69.31
			c11.42-15.26,28.48-25.82,46.43-32.23c92.42-32.98,201.6-36.74,291.64,7.5c13.54,6.65,26.82,14.31,37.53,24.93
			c17.72,17.56,27.16,42.11,30.8,66.79c3.64,24.68,1.95,49.8,0.25,74.69"/>
		<ellipse class="st2" cx="1205.84" cy="1519.93" rx="211.39" ry="43.95"/>
		<path class="st3" d="M991.65,1413.54c-1.64,106.28-0.78,261.1,3.13,322.03c0.97,15.15,8.74,29.01,21.08,37.85
			c111.06,79.56,298.39,60.94,375.1-10.32c9.86-9.16,15.93-21.67,17.1-35.07c7.93-90.92,14.64-239.23,2.62-318.75
			c-2.36-15.65-11.45-29.53-24.96-37.77c-69.06-42.12-259.88-63.93-371.92,3.32C1000.2,1382.99,991.89,1397.7,991.65,1413.54z"/>
		<g>
			<path class="st4" d="M1218.44,1426.98l-8.72-1.3c-21.47-84.68-47.53-160.59-35.07-245.79c12.46-85.2,58.86-203.84,148.03-232.4
				c89.17-28.55,206.59,60.58,242.86,107.18c22.85,29.36,85.15,87.53,119.54,75.44c85.32-29.98,124.16-272.9,157.43-367.03
				c60.63-171.57,193.32-381.92,463.83-560.93l-1.66,144.04c-340.29,225.2-469.03,546.98-517.52,716.22
				c-12.95,45.2-55.55,131.76-101.14,135.73c-45.62,3.97-106.82-70.27-142.24-109.32c-35.41-39.05-73.62-76.15-122.17-100.96
				s-107.87-14-142.03,24.02C1167.46,1136.66,1173.95,1262.03,1218.44,1426.98z"/>
			<path class="st5" d="M1225.91,1428.09l-7.47-1.11c-44.49-164.95-59.13-299.59,54.1-423.35c37.61-41.1,100.52-40.57,149.07-15.76
				s86.76,61.9,122.17,100.96c35.42,39.05,96.61,113.29,142.24,109.32c45.59-3.97,88.19-90.53,101.14-135.73
				c48.48-169.24,177.22-491.02,517.52-716.22l-27.15,182.56c-167.19,88.1-407.44,542.36-489.85,697.08
				c-32.41,60.85-73.31,88.34-128.37,68.2c-55.06-20.13-78.61-85.57-109.83-131.4s-71.91-91.26-122.01-120.42
				c-50.1-29.16-130.07-24.82-158.29,4.98C1172.47,1149.3,1199.91,1239.66,1225.91,1428.09z"/>
			<path class="st6" d="M1236.35,1429.65l-10.44-1.55c-26.01-188.43-56.03-281.3,43.27-380.9c40.2-40.33,108.19-34.14,158.29-4.98
				c50.1,29.16,90.79,74.58,122.01,120.42s54.77,111.27,109.83,131.4c55.06,20.14,95.96-7.35,128.37-68.2
				c82.41-154.71,255.24-584.13,489.85-697.08l-45.82,308.09l-1.01-0.15c-89.24,33.77-294.42,432.46-366.23,534.67
				c-45.92,65.38-143.84,57.8-184.9,55.15c-70.24-4.53-100.99-72.17-112.22-107.48c-32.36-101.78-55.55-157.92-136.01-233.67
				c-32.96-31.04-95.25-36.23-134.83-14.65c-39.58,21.58-56.12,60.41-67.14,101.24c-11.02,40.84-9.44,83.88-5.51,126.17
				C1227.8,1340.41,1236.35,1429.65,1236.35,1429.65z"/>
			<path class="st7" d="M1250.81,1431.8l-14.46-2.15c0,0-8.55-89.23-12.49-131.53c-3.94-42.29-5.51-85.33,5.51-126.17
				c11.03-40.83,27.56-79.66,67.14-101.24c39.58-21.57,101.87-16.38,134.83,14.65c80.46,75.75,103.65,131.89,136.01,233.67
				c11.22,35.31,41.98,102.95,112.22,107.48c41.07,2.65,103.17-24.1,157.35-82.82c94.5-102.41,213.94-460.92,393.78-507.01
				l1.01,0.15l88.08,163.96c-205.34,27.78-343.46,452.12-536.31,510.21c-83.01,25.01-163.91-3.88-221.5-70.7
				c-50.58-58.68-78.5-181.56-111.37-244.4c-17.34-33.14-44.21-97.23-133.83-83.66c-67.66,10.24-77.79,77.92-80.41,111.5
				C1232.32,1275.52,1250.81,1431.8,1250.81,1431.8z"/>
		</g>
		<path class="st8" d="M1185,1490.05c-10.97-8.47-15.04-23.71-13.1-37.43c1.94-13.72,9.01-26.17,16.94-37.53
			c7.93-11.36,16.88-22.08,23.42-34.29c2.03-3.78,5.11-8.38,9.31-7.47c2.41,0.52,3.99,2.75,5.34,4.81
			c8.48,13,16.93,26.22,22.17,40.83c5.25,14.61,7.09,30.93,2.18,45.66c-4.91,14.73-17.45,27.4-32.81,29.7"/>
		<path class="st3" d="M1023.67,1402.73c112.66,36.19,236.77,35.75,349.17-1.24"/>
		<path class="st9" d="M1052.5,1467.34c0.44,14.25,0.89,28.51,1.33,42.76"/>
		<path class="st9" d="M1053.91,1547.96c0.21,69.93,0.42,139.87,0.63,209.8"/>
		<path class="st3" d="M1202.51,1522.58c-2.19-16.15-1.51-32.69,1.99-48.61c1.5-6.79,3.81-13.94,9.31-18.19"/>
		<path class="st3" d="M1181.05,1488.47c-12.55-18.63-12.88-44.72-0.81-63.66c6.28-9.85,15.33-17.54,23.34-26.05
			c8.01-8.51,15.3-18.55,16.89-30.27c10.86,14.12,20.14,29.6,25.97,46.43c10.72,30.97,14.18,67.11-21.14,77.91"/>
		<path class="st3" d="M1317.75,1640.94c3.79,10.53,16.27,16.35,27.3,14.49c11.03-1.86,20.24-10.11,25.49-19.98"/>
		<circle class="st3" cx="1229.59" cy="1640.61" r="8.98"/>
		<circle class="st3" cx="1462.33" cy="1592.33" r="8.98"/>
	</g>
</g>
<g id="Skin_fill">
	<g id="Skin_fill">
		<path class="st10" d="M626.68,1800c4.25-23.82,32.49-21.18,31.66-45.37s72.29-46.62,103.45-48.91
			c19.01-1.4,39.38-35.02,56.9-42.54c32.01-13.73,53.75-22.41,84.8-30.41c27.45-7.08,56.8-5.9,86.11-4.71
			c33.03,1.34,66.88-0.95,98.03,14.35c13.54,6.65,28.79,25.96,39.51,36.58c17.72,17.56-33.55,50.95-29.91,75.63
			c3.64,24.68,40.14,20.48,38.45,45.37"/>
		<path class="st10" d="M903.5,1632.78c3.62-27.37,22.56-52.2,48.01-62.93c25.44-10.73,18.4-18.52,40.53-2l1.7,59.32"/>
		<path class="st10" d="M1623.91,1833.36c-11.83-44.88-35.61-106.76-64.33-132.16c-28.72-25.4-61.44-37.95-93.2-40.24
			c-31.76-2.29-62.68,5.32-91.99,17.74c-8.59,3.64-17.17,7.77-24.4,14.91c-7.23,7.14-13.06,17.66-14.58,30.65
			c-1.73,14.75,2.35,31.13,9.03,44.29c6.67,13.16,15.72,23.53,24.28,33.96c-12.86,10.13-20.68,29.74-18.53,52.33"/>
	</g>
</g>
<g id="Sleeve_fill">
	<path id="Sleeve_fill" class="st11" d="M628.44,1800.67c18.82-35.29,47.04-65.5,80.97-86.67c8.39-5.23,17.28-9.99,26.99-11.89
		c9.7-1.9,20.39-0.64,28.31,5.28c-21.77,26.56-36.66,58.71-42.85,92.48"/>
</g>
<g id="Outline_1_">
	<g>
		<path class="st12" d="M903.5,1632.78c3.62-27.37,22.56-52.2,48.01-62.93c12.72-5.36,26.83-7.1,40.53-5.43"/>
		<path class="st12" d="M990.95,1564.7c0.11,21.85,0.3,43.31,0.58,63.56"/>
		<path class="st3" d="M1626.88,1833.43c-14.75-91.04-63.2-146.43-112.95-164.81c-27.8-10.27-55.91-8.59-83.38-5.92
			c-23.16,2.25-46.73,5.35-66.88,19.23c-8.38,5.78-16.16,13.52-21.56,24.3s-8.23,24.88-6.4,39.13c3.15,24.44,19.17,43.96,35.54,52.9
			"/>
		<path class="st3" d="M1503.13,1790.5c-34.89-15.15-70.31-7.81-104.32-0.21c-12.31,2.75-25.08,5.79-34.61,16.3
			c-9.78,10.78-15.12,29.18-14.01,48.26"/>
		<path class="st3" d="M895.51,1766.83c47.47-20.71,101.24-19.32,152.99-17.43c18.74,0.68,38.21,1.57,54.78,10.36
			c17,9.01,29.36,26.28,32.41,45.28"/>
		<path class="st3" d="M720.86,1805.04c10.07-72.67,60.39-130.29,128.87-156.62c38.27-14.72,79.91-17.71,120.87-19.61
			c34.53-1.6,69.87-2.44,102.84,7.93c13.72,4.31,27.03,10.66,37.6,20.41c10.57,9.75,18.19,23.18,19,37.54
			c1.38,24.63-17.33,46.53-39.14,58.05"/>
		<path class="st3" d="M624.66,1804.47c12.24-27.7,29.1-53.95,52.68-72.95c23.58-19,54.48-30.13,84.45-25.8"/>
	</g>
</g>
</svg>
