<?xml version="1.0" encoding="UTF-8"?>
<svg xmlns="http://www.w3.org/2000/svg" version="1.1" viewBox="0 0 1800 1800">
  <!-- Generator: Adobe Illustrator 29.2.0, SVG Export Plug-In . SVG Version: 2.1.0 Build 108)  -->
  <defs>
    <style>
      .st0 {
        fill: #ffead2;
      }

      .st1 {
        stroke: #fff;
        stroke-miterlimit: 10;
      }

      .st1, .st2 {
        fill: none;
        stroke-linecap: round;
        stroke-width: 20px;
      }

      .st3 {
        fill: #fc7cc5;
      }

      .st4 {
        fill: #ffa4d4;
      }

      .st5 {
        mix-blend-mode: soft-light;
        opacity: .8;
      }

      .st6 {
        isolation: isolate;
      }

      .st2 {
        stroke: #000;
        stroke-linejoin: round;
      }
    </style>
  </defs>
  <g class="st6">
    <g id="Skin_fill">
      <path id="Skin_fill-1" data-name="Skin_fill" class="st0" d="M1254.85,1812.88c-19.09-38.63-38.17-77.25-57.26-115.88-9.28-18.78-18.8-39.85-12.88-59.95,4.59-15.59,18.02-28.17,19.45-44.36,1.05-11.89-4.62-23.19-7.45-34.78-8.69-35.6,13.51-76.01,48.22-87.76-24.31-14.01-51.04-31.26-56.38-58.8-5.14-26.48,13.56-53.75,38.5-64.01,24.94-10.27,53.97-6.02,78.45,5.28,24.49,11.31,45.33,29.05,65.84,46.56,8.66-21.7,21.99-41.53,38.82-57.74,9.7-9.34,21.61-17.88,35.08-17.98,15.76-.12,29.29,11.33,38.69,23.98,16.14,21.71,24.71,48.94,23.91,75.98-.87,29.65-12.58,58.83-8.9,88.26,3.23,25.82,17.87,48.51,28.84,72.11,31.63,68.04,32.78,149.57,3.08,218.47"/>
    </g>
    <g id="Shadow_fill">
      <path class="st5" d="M1423.92,1329c-22.41,60.66,22.14,90.76,66.47,146.73,13.4,16.92,8.02,17.07,4.37,38.33-.55,3.23-1.85,6.85-4.94,7.94-3.88,1.36-7.65-2.09-10.32-5.21-24.88-29.04-49.76-58.09-74.65-87.13-9.42-11-19.24-22.86-21.15-37.21-1.75-13.11,3.59-26.37,11.66-36.84,8.08-10.47,20.05-17.39,28.56-26.61Z"/>
    </g>
    <g id="Outline">
      <path class="st2" d="M1244.29,1797c-10.2-20.58-16.69-34.97-18.94-57.11-43.52-36.67-65.95-119.81-13.64-142.12"/>
      <path class="st2" d="M1354.52,1575.04c-26.67-32.23-58.65-67.13-81-86.57-53.04-46.15-84.26-52.41-84.26-91.73,0-27.38,21.08-50.67,48.11-55.06,31.46-5.11,58.69,12.94,82.28,26.84,56.26,33.16,102.34,74.65,143.82,125.08,33.57,40.8,67.54,91.25,84.19,141.4,20.08,60.49,15.26,109.43-13.59,168"/>
      <path class="st2" d="M1376.87,1407.74c1.47-20.27,7.52-40.84,20.4-56.57s26.93-26.46,47.26-26.42,41.78,11.88,49.87,30.53c6.58,15.15,8.78,33.94,7.27,50.39-4.32,47.3-9.56,92.91,10.57,155.69"/>
      <path class="st2" d="M1282.36,1662.78c-25.41-22.81-103.12-79.8-88.07-142.03,6.79-28.08,34.09-56.72,73.73-37"/>
      <g>
        <path class="st4" d="M1329.29,1277.46c-13.98-5.72-28.07-11.51-40.61-19.92s-23.6-19.75-29.11-33.82c-5.75-14.65-5.08-31-3.05-46.6,1.13-8.66,2.93-17.84,9.02-24.11,5.56-5.74,13.95-8.05,21.93-7.84s15.73,2.69,23.28,5.32c5.31,1.85,10.71,3.82,16.33,3.94,8.02.17,15.57-3.39,23.07-6.24,10.85-4.12,22.59-6.89,34.05-5.04,11.46,1.85,22.56,9.09,26.47,20.02,3.04,8.49,1.49,17.88-.56,26.66-4.82,20.64-12.44,41.04-25.73,57.55-13.29,16.51-32.84,28.79-55.09,30.09Z"/>
        <path class="st1" d="M1359.56,1209.78c9.26-7.92,10.89-20.85,10.2-32.53"/>
        <path class="st3" d="M1303.37,1153.71c-25.17,4.49-38.86,60.72,31.83,115.61-12.44,2.22-25.7-4.38-35.98-11.72-10.29-7.33-18.11-17.66-24.44-28.59-10.24-17.7-17.05-38.25-14.29-58.52.7-5.16,2.15-10.49,5.77-14.23,4.37-4.53,11.04-5.89,17.3-6.46s10.03,4.14,19.8,3.91Z"/>
        <path class="st2" d="M1334.02,1278.92c-106.72-40.4-100.06-176.37-3.46-123.61,93.08-56.74,110.01,69.81,3.46,123.61Z"/>
      </g>
    </g>
  </g>
</svg>
