<?xml version="1.0" encoding="UTF-8"?>
<svg xmlns="http://www.w3.org/2000/svg" version="1.1" viewBox="0 0 1800 1800">
  <!-- Generator: Adobe Illustrator 29.2.0, SVG Export Plug-In . SVG Version: 2.1.0 Build 108)  -->
  <defs>
    <style>
      .st0 {
        fill: #d08c79;
      }

      .st1 {
        fill: #fff;
      }

      .st2 {
        fill: none;
      }

      .st2, .st3 {
        stroke: #000;
        stroke-linecap: round;
        stroke-linejoin: round;
        stroke-width: 25px;
      }

      .st4 {
        fill: #fed0b7;
      }
    </style>
  </defs>
  <g id="Skin_fill">
    <path id="Skin_fill-1" data-name="Skin_fill" class="st4" d="M558.14,1811.14c-23.15-46.87.91-104.58,37.03-142.36,36.13-37.78,83.2-63.53,120.23-100.43,37.02-36.9,63.74-92.71,44.03-141.12-8.73-21.44-16.19-55.57-4.65-75.44,13.14-22.63,47.59-29.71,73.94-30.35,37.12-.9,78.41,34.87,85.42,70.49,2.34,11.87-6.95,20.12-11.05,31.8-19.23,54.73-23.45,114.64-12.08,171.53-55.84-16.18-121.35,20.56-136.65,76.65,35.67-15.31,74.27-30.95,112.21-22.72,37.94,8.23,70.04,52.09,51.42,86.15,50.53-17.38,111.25,29.26,107.5,82.56"/>
  </g>
  <g id="Sleeve_fill">
    <path id="Sleeve_fill-1" data-name="Sleeve_fill" class="st1" d="M434.93,1807.15c13.26-63.26,36.9-126.59,82.21-172.69,45.3-46.11,115.81-71.45,176.74-49.87-82.29,38.01-136.99,128.95-134.99,219.63"/>
  </g>
  <g id="Outline">
    <path class="st1" d="M1028.54,1801.15c-.38-45.68-52.17-78.67-94.05-60.42-1.56-38.3-27.34-74.55-63.02-88.58-35.67-14.03-79.25-5.07-106.48,21.91,4.5-57.63,72.63-100.41,126.49-79.43.84-15.93,1.69-31.87,2.53-47.8,25.28,2.08,50.56,4.16,75.84,6.24,8.3,20.28,15.83,34.15,9.64,65.17-4.74,23.72,14.14,52.7,37.54,58.86,23.39,6.16,52.17-9.74,53.69-33.89,2.97-47.1,5.94-94.2,8.91-141.3,63.34-87.63-119.67-146.5-24.1-166.13,47.24-9.7,344.94-91.25,425.82,26.28,85.95,124.9,91.14,289.08,69.17,439.09"/>
    <path class="st0" d="M899.63,1543.47c-3.39-42.19-6.17-87.33,14.88-124.05,12.51-21.82,32.47-38.55,54.09-51.4,19.61-11.66,42.08-20.69,64.75-18.07s44.79,19.98,46.41,42.74c.65,9.19-1.95,18.4-1.12,27.58s7.01,19.17,16.22,19.26c5.35.05,10.11-3.24,15.27-4.62s12.28.54,12.79,5.86c.35,3.64-2.62,6.66-5.34,9.1-9.49,8.49-19.04,17.05-26.75,27.19-14.22,18.69-21.48,41.97-23.96,65.33s-.45,46.94,2.38,70.26c2.18,17.93,4.39,37.75-5.96,52.55-9.54,13.65-28.5,19.04-44.53,14.5-16.02-4.54-28.76-17.79-34.92-33.26-6.16-15.47-6.25-32.88-2.68-49.14,2.91-13.24,7.71-28.62-.87-39.11-5.53-6.76-14.83-8.83-23.42-10.48-20.46-3.93-40.92-7.86-57.27-4.23Z"/>
    <g>
      <path class="st2" d="M919.85,1403.61c59.98-59.98,243.51-108.82,413.34-101.74,95.97,4,124.01,17.19,143.06,50.42,73.35,127.96,114.12,310.58,71.24,448.87"/>
      <path class="st2" d="M919.85,1403.61c-30.36,37.1-31.74,117.4-26.1,189.17"/>
      <path class="st3" d="M1253.3,1559.78c-30.41,5.37-60.81,10.74-91.07,17.32-2.06,12.15,4.52,25.27,15.49,30.88s25.46,3.26,34.1-5.52c8.64-8.79,10.74-23.31,4.95-34.19"/>
      <path class="st3" d="M1677.02,1474.05c-30.41,5.37-60.81,10.74-91.07,17.32-2.06,12.15,4.52,25.27,15.49,30.88,10.97,5.61,25.46,3.26,34.1-5.52,8.64-8.79,10.74-23.31,4.95-34.19"/>
      <path class="st2" d="M895.69,1533.46c29.47,32.39,71.39,6.68,81.8,31.47,5.29,12.59,2.77,31.91,2.46,45.57-.31,13.65-4.04,26.96,1.55,39.42,9.14,20.35,38.09,32.61,59.36,25.87,21.27-6.74,36.38-31.58,32.13-53.48-4.68-24.09-11.47-69.98-.52-111.22,3.17-11.94,9.42-22.81,18-31.7,18.16-18.82,38.72-33.82,69.46-44.91"/>
      <line class="st2" x1="1371.25" y1="1559.78" x2="1458.49" y2="1544.35"/>
      <path class="st2" d="M554.79,1801.15c0-57.95,17.88-117.09,51.74-154.7,39.34-43.7,83.09-46.63,120.27-80.97,37.18-34.34,48.53-111.6,28.39-158.03-19.2-44.25-1.33-69.3,44.83-83.32,49.7-15.09,96.39,22.22,121.46,77.32"/>
      <path class="st2" d="M434.05,1801.15c4.96-65.07,39.13-129.68,89.5-171.19,53.92-44.44,117.94-58.1,182.59-49.18"/>
      <path class="st2" d="M709.65,1664.97c24.92,3.6,47.37,3.72,69.08-1.82,21.71-5.55,43.96-20.83,66.22-23.39,22.26-2.56,43.71,7.2,55.05,15.96,24.25,18.75,28.88,58.68,21.48,77.33-18.07,45.58-77.98,66.42-119.18,79.27"/>
      <path class="st2" d="M919.1,1739.67c22.08-9.75,51.28-10.43,72.49,1.08s33.75,31.89,36.95,60.41"/>
      <path class="st2" d="M750.42,1667.31c27.04-59.03,86.39-94.87,159.94-69.85"/>
      <path class="st2" d="M993.15,1420.21c-2.92-20.78,83.82-50.15,193.75-65.6,109.93-15.45,201.41-12.59,204.33,8.2,2.92,20.78-83.82,51.62-193.75,67.06-109.93,15.45-201.41,11.12-204.33-9.66Z"/>
      <path class="st2" d="M1010.91,1350.91c39.27-2.01,68.13,25.09,68.13,25.09l2.41,58.12"/>
    </g>
  </g>
</svg>
