<?xml version="1.0" encoding="UTF-8"?>
<svg xmlns="http://www.w3.org/2000/svg" width="1800" height="1800" viewBox="0 0 1800 1800">
  <g id="Sleeve_fill">
    <path id="Sleeve_fill-2" data-name="Sleeve_fill" d="M1025.13,1802.27c99.21-43.84,151.23-101.31,219.6-141.54,23.9-14.07,32.8-12.27,60.33-8.95,22.31,2.69,41.56,16.6,58.58,31.27,37.54,32.35,70.68,72.42,82.98,120.42v-.86" fill="#fff"/>
  </g>
  <g id="Skin_fill">
    <path id="Skin_fill-2" data-name="Skin_fill" d="M1295.64,1652.3c20.59-16.55,39.13-35.63,55.07-56.69,3.15-4.15,6.29-8.63,6.9-13.81.88-7.45,5.82-31.72,4.58-32.7-21.09-16.69-22.92-35.02-23.54-54.37-.61-19.18-.12-29.24,13.57-42.93,4.37-4.37,8.86-11.63,24.98-8.51,6.4-4.67,10.52,5.43,14.1.39,4.15-5.83.79-12.87,3.18-18.72,4.09-10.01,13.7-18.08,24.7-21.71,22.98-7.57,50.76-3.33,69.09,12.46,13.89-3.29,28-7.82,37.39-2.49,4.48,2.55,25.03,8.96,28.17,12.98,5.89,7.54,16.79,12.48,22.85,20.24,12.07,15.45,20.34,25.35,32.86,40.44,19.21,23.16,35.81,47.12,49.89,73.71,14.07,26.6,25.67,43.91,18.43,74.29-17.34,72.75-57.6,115.92-96.31,157.42-4.57,4.9-12.35,11.32-18.43,14.13-5.47,2.52-5.89,3.25-11.91,3.02-34.84-1.3-69.68-2.6-104.52-3.9-10.88-35.86-29.29-65.04-53.08-93.99-23.79-28.95-53.83-57.28-97.98-59.28Z" fill="#fed0b7"/>
  </g>
  <g id="Outline_hand">
    <g>
      <path d="M1362.98,1555.8c-17.26-19.63-25.23-43.92-23.78-69.13.81-14.08,5.27-28.83,16.16-37.78,7.85-6.46,22.02-7.71,32.2-2.72" fill="none" stroke="#000" stroke-linecap="round" stroke-linejoin="round" stroke-width="22.5"/>
      <path d="M1392.33,1443.11c-3.07-18.89,9.27-32.29,26.86-39.84,17.58-7.55,38.39-4.76,55.43,3.94,4.26,2.17,8.32,4.68,12.19,7.45" fill="none" stroke="#000" stroke-linecap="round" stroke-linejoin="round" stroke-width="22.5"/>
      <path d="M1034.15,1802.16c190.08-111.63,198.85-162.99,261.49-149.85,84.85,20.09,119.5,96.66,143.69,149.85" fill="none" stroke="#000" stroke-linecap="round" stroke-linejoin="round" stroke-width="22.5"/>
      <path d="M1295.76,1651.2c25.67-19.85,55.91-48.03,64.45-79.33,4.94-18.11,2.97-37.26,2.34-56.02-.63-18.76.42-38.58,10.42-54.46,7.6-12.08,20.19-20.93,34.15-23.89s29.1.03,40.83,8.15c13.15,9.1,21.41,23.76,27.01,38.73,13.89,37.16,13.77,77.9,13.49,116.94,16.19,21.34,24.33,48.63,22.48,75.35" fill="none" stroke="#000" stroke-linecap="round" stroke-linejoin="round" stroke-width="22.5"/>
      <path d="M1508.22,1640.98c10.17-14.34,25.75-24.74,40.61-29.45-32.03-27.09-59.43-91.68-73.2-125.32-4.46-10.9-8.14-20.25-8.4-32.02-.27-11.77,3.32-24.04,11.73-32.28,14.32-14.01,37.83-12.6,56.61-5.64,42.45,15.72,84.64,87,110.69,124.02,14.05,19.96,27.78,41.21,31.6,65.32,5.01,31.59-7.73,63.29-23.37,91.19-21.96,39.15-50.21,75.09-83.34,105.37" fill="none" stroke="#000" stroke-linecap="round" stroke-linejoin="round" stroke-width="22.5"/>
    </g>
  </g>
</svg>