<?xml version="1.0" encoding="UTF-8"?>
<svg xmlns="http://www.w3.org/2000/svg" width="1800" height="1800" xmlns:xlink="http://www.w3.org/1999/xlink" viewBox="0 0 1800 1800">
  <defs>
    <linearGradient id="linear-gradient" x1="1282.01" y1="1495.8" x2="1260.1" y2="1822.08" gradientUnits="userSpaceOnUse">
      <stop offset="0" stop-color="#91abf3"/>
      <stop offset=".01" stop-color="#abade2"/>
      <stop offset=".04" stop-color="#c8b0cf"/>
      <stop offset=".06" stop-color="#dfb3c0"/>
      <stop offset=".08" stop-color="#f0b4b6"/>
      <stop offset=".11" stop-color="#f9b5af"/>
      <stop offset=".14" stop-color="#fdb6ae"/>
      <stop offset=".39" stop-color="#e6e49c"/>
      <stop offset=".56" stop-color="#afefaf"/>
      <stop offset="1" stop-color="#87acf8"/>
    </linearGradient>
  </defs>
  <g id="Pad_fill">
    <path d="M1327.94,1765.86h-127.52s-1.44,0-1.44,0c-24.48,29.87-61.19,48.82-104.35,48.82-73.94,0-133.88-56.46-133.88-126.1,0-69.64,59.94-126.1,133.88-126.1h339.1c73.94,0,133.88,56.46,133.88,126.1,0,69.64-59.94,126.1-133.88,126.1-43.02,0-81.3-19.11-105.79-48.82" fill="#a3a4f3"/>
  </g>
  <g id="Skin_fill">
    <g id="Skin_fill-2" data-name="Skin_fill">
      <path d="M1697.22,1806.36c-11.83-44.88-35.61-106.76-64.33-132.16-28.72-25.4-61.44-37.95-93.2-40.24-31.76-2.29-62.68,5.32-91.99,17.74-8.59,3.64-17.17,7.77-24.4,14.91-7.23,7.14-13.06,17.66-14.58,30.65-1.73,14.75,2.35,31.13,9.03,44.29,6.67,13.16,15.72,23.53,24.28,33.96-12.86,10.13-20.68,29.74-18.53,52.33" fill="#fed0b7"/>
      <path d="M722.25,1806.43c6.34-46.21,32.62-88.55,68.51-118.35s80.81-47.58,126.85-55.08c46.04-7.5,93.26-5.1,139.31,2.31,13.5,2.17,27.1,4.83,39.45,10.68,12.36,5.85,23.5,15.27,28.92,27.82,6.15,14.27,4.19,31.09-2.36,45.18-6.56,14.09-17.29,25.8-27.28,37.5,21.36,7.87,37.64,25.92,40.04,48.55" fill="#fed0b7"/>
      <path d="M903.5,1632.78c3.62-27.37,22.56-52.2,48.01-62.93s56.44-6.95,78.57,9.57l-57.55,49.02" fill="#fed0b7"/>
    </g>
  </g>
  <g id="Sleeve_fill">
    <path id="Sleeve_fill-2" data-name="Sleeve_fill" d="M626.68,1800c15.29-24.65,31.57-49.05,53.72-67.78,22.15-18.73,51.35-31.03,80.06-26.84-20.57,28.26-33.17,60.13-38.84,94.62" fill="#fff"/>
  </g>
  <g id="Outline">
    <path d="M1355.11,1559.63v-2.72c0-17.31,14.04-31.35,31.35-31.35h24.73c17.31,0,31.35,14.04,31.35,31.35v2.72" fill="#ffa4d5"/>
    <path d="M1091.03,1556.91c0-17.31,14.04-31.35,31.35-31.35h24.73c17.31,0,31.35,14.04,31.35,31.35" fill="#ffa4d5"/>
    <path d="M992.35,1627.52c24.56-27.36,61.26-44.74,102.28-44.74h339.1c46.09,0,86.73,21.94,110.81,55.33,12.42,17.22,7.7-21.01,9.78.87.36-3.76,3.09,5.09,3.09,1.24,0-19.95,5.28,7.04-3.48-9.73-21.81-41.77-67.44-70.52-120.2-70.52h-339.1c-50.53,0-94.52,26.37-117.31,65.29" fill="#c4c4ff"/>
    <rect x="1237.05" y="1532.45" width="62.18" height="29.42" fill="#ffdd6e"/>
    <path d="M1327.94,1765.86h-127.52s-1.44,0-1.44,0c-15.3,18.67-35.38,33.07-58.82,41.25-14.07,4.91-29.34,7.57-45.53,7.57" fill="none" stroke="#000" stroke-linecap="round" stroke-linejoin="round" stroke-width="19.29"/>
    <path d="M1417.84,1813.8c-36.48-4.06-68.47-21.94-89.9-47.94" fill="none" stroke="#000" stroke-linecap="round" stroke-linejoin="round" stroke-width="19.29"/>
    <path d="M978.06,1626.53c22.99-38.24,66.58-64.05,116.57-64.05h339.1c53.84,0,100.25,29.93,121.51,73.1" fill="none" stroke="#000" stroke-linejoin="round" stroke-width="19.29"/>
    <path d="M1241.28,1529.95c0-16.33-3.28-31.37,23.65-42.85l.22-.09c18.1-8.89,39.25,1.13,48.28,22.95,17.82,43.07-17.26,99.85-24.47,110.79-.18.27-.36.53-.55.79-4.71,6.57-7.09,10.77-8.29,13.39,2.05,1.34,4.51,3.08,6.98,5.49,12.55,12.24,17.46,33.84,12.5,55.03-2.96,12.69-8.56,22.58-13.51,31.31-4.16,7.34-7.75,13.69-8.11,18.78-.21,3.81,1.53,10.18,3.21,16.34,3.48,12.73,7.81,28.58,3.39,46.6-2.65,10.81-10.69,17.78-19.4,17.78-1.94,0-3.92-.35-5.87-1.08-10.72-3.99-16.78-17.95-13.54-31.16.67-2.73-1.37-10.18-3-16.17-2.7-9.89-6.06-22.2-5.22-36.1,0-.04,0-.09,0-.13,1.21-18.63,9.02-32.41,15.29-43.49,12.29-21.7-4.03-29.08-4.03-29.08-.3-.36-.59-.73-.86-1.1-10.19-13.83-12.3-32.4-5.8-50.93,3.83-10.92,10-20.35,15.59-28.17,5-7.65,11.77-20.15,16.11-32.77,3.81-11.08,4.33-18.07,3.9-21.52" fill="url(#linear-gradient)"/>
    <path d="M1241.28,1529.95c0-16.33-3.28-31.37,23.65-42.85,0,0,32.92-14.79,48.5,22.85,17.08,41.27-14.77,96.16-27.98,116.77-2.78,4.34-2.12,10.03,1.57,13.62l.07.07c12.55,12.24,17.46,33.84,12.5,55.03-2.96,12.69-8.56,22.58-13.51,31.31-4.16,7.34-7.75,13.69-8.11,18.78-.21,3.81,1.53,10.18,3.21,16.34,3.48,12.73,7.81,28.58,3.39,46.6-2.65,10.81-10.69,17.78-19.4,17.78-1.94,0-3.92-.35-5.87-1.08-10.72-3.99-16.78-17.95-13.54-31.16.67-2.73-1.37-10.18-3-16.17-2.7-9.89-6.06-22.2-5.22-36.1,0-.04,0-.09,0-.13,1.21-18.63,9.02-32.41,15.29-43.49,2.78-4.9,4.72-9.25,6-12.56,1.37-3.55.14-7.53-2.9-9.81-2.16-1.62-4.75-3.85-7.13-6.71-.3-.36-.59-.73-.86-1.1-10.19-13.83-12.3-32.4-5.8-50.93,3.83-10.92,10-20.35,15.59-28.17,5-7.65,11.77-20.15,16.11-32.77,3.81-11.08,8.12-21.82,5.69-23.62" fill="none" stroke="#000" stroke-linecap="round" stroke-linejoin="round" stroke-width="10"/>
    <path d="M1237.05,1561.87v-14.35c0-8.32,6.75-15.07,15.07-15.07h25.8" fill="none" stroke="#000" stroke-linecap="round" stroke-linejoin="round" stroke-width="15"/>
    <path d="M1091.03,1559.63v-2.72c0-17.31,14.04-31.35,31.35-31.35h24.73c17.31,0,31.35,14.04,31.35,31.35v2.72" fill="none" stroke="#000" stroke-linecap="round" stroke-linejoin="round" stroke-width="15"/>
    <path d="M1355.11,1559.63v-2.72c0-17.31,14.04-31.35,31.35-31.35h24.73c17.31,0,31.35,14.04,31.35,31.35v2.72" fill="none" stroke="#000" stroke-linecap="round" stroke-linejoin="round" stroke-width="15"/>
    <path d="M903.5,1632.78c3.62-27.37,22.56-52.2,48.01-62.93s53.35-9.12,75.48,7.4" fill="none" stroke="#000" stroke-linecap="round" stroke-linejoin="round" stroke-width="19.29"/>
    <g>
      <path d="M624.66,1804.47c12.24-27.7,29.1-53.95,52.68-72.95,23.58-19,54.48-30.13,84.45-25.8" fill="none" stroke="#000" stroke-linecap="round" stroke-linejoin="round" stroke-width="19.29"/>
      <path d="M720.86,1805.04c10.07-72.67,60.39-130.29,128.87-156.62,38.27-14.72,79.91-17.71,120.87-19.61,34.53-1.6,69.87-2.44,102.84,7.93,13.72,4.31,27.03,10.66,37.6,20.41,10.57,9.75,18.19,23.18,19,37.54,1.38,24.63-17.33,46.53-39.14,58.05" fill="none" stroke="#000" stroke-linecap="round" stroke-linejoin="round" stroke-width="19.29"/>
      <path d="M895.51,1766.83c47.47-20.71,101.24-19.32,152.99-17.43,18.74.68,38.21,1.57,54.78,10.36,17,9.01,29.36,26.28,32.41,45.28" fill="none" stroke="#000" stroke-linecap="round" stroke-linejoin="round" stroke-width="19.29"/>
    </g>
    <g>
      <path d="M1700.19,1806.43c-14.75-91.04-63.2-146.43-112.95-164.81-27.8-10.27-55.91-8.59-83.38-5.92-23.16,2.25-46.73,5.35-66.88,19.23-8.38,5.78-16.16,13.52-21.56,24.3-5.4,10.79-8.23,24.88-6.4,39.13,3.15,24.44,19.17,43.96,35.53,52.9" fill="none" stroke="#000" stroke-linecap="round" stroke-linejoin="round" stroke-width="19.29"/>
      <path d="M1576.44,1763.5c-34.89-15.15-70.31-7.81-104.32-.21-12.31,2.75-25.08,5.79-34.61,16.3-9.78,10.78-15.12,29.18-14.01,48.26" fill="none" stroke="#000" stroke-linecap="round" stroke-linejoin="round" stroke-width="19.29"/>
    </g>
  </g>
</svg>