<?xml version="1.0" encoding="UTF-8"?>
<svg xmlns="http://www.w3.org/2000/svg" width="1800" height="1800" viewBox="0 0 1800 1800">
  <g id="Skin_fill">
    <g id="Skin_fill-2" data-name="Skin_fill">
      <path d="M1636.23,1702.37c33.3,17.83,72.89,23.64,109.91,16.12,12.88-2.62,26.8-7.93,32.4-19.82,5.06-10.75,1.65-23.63-3.89-34.14-16.8-31.87-53.66-51.97-89.55-48.83,16.89-10.33,27.15-30.62,25.46-50.35-.66-7.64-2.76-16.1,1.57-22.43,2.49-3.64,6.65-5.74,9.77-8.85,8.89-8.85,7.65-23.4,5.04-35.67-4.78-22.5-13.91-46.76-34.52-56.99-15.92-7.9-34.8-5.43-52.37-2.77-11.63,1.76-23.48,3.58-34.03,8.8-10.55,5.21-19.78,14.45-21.95,26.01-2.17,11.56,4.7,24.98,16.2,27.46-14.29,15.3-20.21,37.98-15.23,58.31,4.98,20.34,20.71,37.71,40.45,44.68,5.26,1.86,11.3,3.41,14.17,8.2,2.3,3.83,1.84,8.65,1.31,13.09-2.99,25.02-5.98,50.04-4.73,77.19Z" fill="#fed0b7"/>
      <path d="M426.42,1549.97c-13.28-50.34-39.11-97.31-74.5-135.49-13.23-14.27-28.38-28.39-33.01-47.29-7.96-32.49,22.24-65.74,55.55-68.76,33.31-3.02,65.23,17.74,84.6,45.01,17.27-25.63,55.16-34.61,82.1-19.47-17.41-44.54,5.87-100.79,49.66-120,43.79-19.21,100.95,1.75,121.93,44.72-2.17,29.01,5.06,29.43-9.05,64.33-22.91-2.64-45.82-5.27-68.73-7.91-4.09-.47-9.03-.59-11.4,2.78-2.34,3.32-.64,7.87,1.11,11.54,16.31,34.19,32.61,68.39,48.92,102.58,6.26-14.53,12.72-29.35,23.37-41.04,10.66-11.69,26.48-19.89,42.09-17.31,5.8.96,12.62,3.07,16.9-.97,3.03-2.86,3.18-7.52,4.59-11.44,3.94-10.98,18.69-15.2,29.37-10.51,10.68,4.69,17.31,15.84,20.02,27.18,5,21.01-1.3,43.25-11.31,62.39-10.01,19.14-23.6,36.17-34.67,54.72-17.18,28.81-28.04,60.85-41.52,91.56-13.48,30.71-30.33,61.05-56.39,82.16-26.06,21.12-63.07,31.37-94.02,18.44,11.43,12.81-29.63,14.7-57.51,3.06-15.84-6.62-57.3-54.25-74.73-55.1" fill="#fed0b7"/>
    </g>
  </g>
  <g id="Sleeve_fill">
    <path id="Sleeve_fill-2" data-name="Sleeve_fill" d="M235.39,1848.76c45.22-76.91,85.2-156.89,119.58-239.22,6.47-15.48,12.91-31.33,23.74-44.14,10.84-12.81,27.08-22.29,43.77-20.58-9.63,33.95,3.87,71.75,28.7,96.83,24.83,25.07,59.39,38.65,94.24,44.21,40.67,6.49,87.32.66,114.13-30.6,8.29-9.67,16.4-22.51,29.14-22.59,15.61-.11,23.48,18.77,25.31,34.27,6.61,55.91-11.15,112.57-39.62,161.14-28.47,48.57-67.19,90.2-106.08,130.91" fill="#fff"/>
  </g>
  <g id="Outline_MC">
    <g>
      <path d="M1282.27,1840.24c-105.01-105.01-128.58-200.6-134.61-316.5-2.36-45.37,9.41-98.11,50.01-118.49,33.51-16.82,74.06-5.14,108.07,10.65,34.01,15.79,68.09,35.94,105.58,35.61,43.81-.39,65.67-41.14,102.11-65.47,14.97-9.99,46.87-7.07,64.67-9.68,17.81-2.61,38.13,3.75,46.82,19.51,7.14,12.94,5.12,28.77,3.19,43.42-27.26,0-44.26-6.15-41.01,83.44,2.2,60.55,46.52,68.85,48.4,89.63,2.91,32.06-6.02,138.85-25.28,164.65-17.5,23.45-48.52,31.53-77.23,37.14-79.78,15.59-160.96,24.05-250.72,26.09Z" fill="#ff6a78"/>
      <path d="M1268.24,1696.31c1.83-56.15,3.94-109.41,21.87-162.65,4.28-12.7,10.78-23.81,19.07-34.35,8.29-10.53,20.04-18.88,33.32-20.71,14.9-2.06,30.01,4.31,41.49,14.01,11.49,9.7,21.05,22.9,28.88,35.74,8.35-19.7,20.72-39.03,39.23-49.77,21.44-12.45,43.96-4.59,51.31.42,25.7,17.53,37.47,50.37,42.23,69.43,9.08,36.35,19.23,99.99,21.59,146.04.38,7.4-8.72,18.41-20.02,19.3-8.07.64-20.64-3.04-22.89-14.51-8.8-44.93-8.02-96.13-21.87-139.77-3.85-12.15-16.59-45.9-26.08-44.89-11.8,1.26-26.31,28.94-32.85,79.46-3.13,24.19-1.56,50.16-2.34,78.37-.75,27.32-42.06,25.88-44.09-1.08-1.98-26.31-4.68-49.03-8.63-72.65-8.77-52.44-28.06-73.9-34.38-75.8-3.5-1.05-7.13-.07-9.99,2.21-2.87,2.29-21.62,26.58-27.35,88.46-2.51,27.18-4.43,54.48-4.14,81.77.18,17.14-10.39,27.75-24.79,26.23-6.8-.72-20.24-5.2-19.59-25.25Z" fill="#ffe87f"/>
      <path d="M1183.09,1415.74l-59.55-118.52,34.69-25.44,34.11,32.38-20.81-152.06,38.74-15.61,17.92,33.53,49.72-5.78,20.81,38.74,33.53-3.47,29.49,56.66-3.47-124.3,58.97-1.16,5.78,50.88,48.57,17.92,9.25,130.66,27.17-3.47,17.34-106.38,43.94,1.73-5.2,99.44,27.17,4.05,31.22-65.33,39.89,19.08s-47.41,111.58-51.01,110.32c-13.67-22.38-46.19-25.95-70.45-15.99-24.26,9.96-42.81,29.75-62.53,47.04s-43.4,33.19-69.61,32.38c-37.66-1.17-65.13-35.29-99.63-50.44-38.56-16.94-84.46-8.67-126.06,13.14Z" fill="#fae98b"/>
      <g>
        <path d="M1715.61,1545.92c18.7-20.53,18.75-54.12,3.39-77.26-15.36-23.13-43.43-35.94-71.17-37-20.45-.78-42.46,5.14-55.29,21.08-12.83,15.94-12.01,43.11,9.19,56.67,25.33-4.53,52.11-.56,75.04,11.12,15.29,7.79,29.56,19.97,34.14,36.51,6.4,23.12-9.74,48.84-32.37,56.81-22.63,7.97-48.88.14-66.66-15.97-22.09-20.03-47.52-67.84-11.15-87.6" fill="none" stroke="#000" stroke-linecap="round" stroke-linejoin="round" stroke-width="22.19"/>
        <path d="M1678.55,1613.84c30.32.02,75.57,16.83,95.46,39.72,23.2,26.69,13.54,48.19-4.48,58.46-8.38,4.78-18.01,6.91-27.56,8.29-37.43,5.43-76.35.15-110.98-15.05" fill="none" stroke="#000" stroke-linecap="round" stroke-linejoin="round" stroke-width="22.19"/>
        <path d="M1635.19,1619.83c-7.67,48.59,1.33,102.31-24.97,143.88-20.43,32.29-58.31,49.59-95.79,57.05-37.48,7.46-76.12,6.84-113.9,12.59-35.09,5.35-71.42,16.11-105.25,5.36-34.3-10.9-58.17-41.65-76.72-72.49-46.9-77.99-74.12-167.69-78.49-258.59-.98-20.53-.6-42.05,9.01-60.22,9.47-17.88,26.79-30.28,44.76-39.56,24.49-12.63,52.47-20.75,79.62-16,26.92,4.71,49.94,21.32,73.32,35.47,23.38,14.15,50.3,26.56,77.16,21.55,43.06-8.03,67.11-56.19,107.63-72.84,39.82-16.36,91.03,6.21,105.82,46.64" fill="none" stroke="#000" stroke-linecap="round" stroke-linejoin="round" stroke-width="22.19"/>
        <path d="M1319.84,1795.43c64.94-23.45,136.41-28.5,204.01-14.42" fill="none" stroke="#000" stroke-linecap="round" stroke-linejoin="round" stroke-width="22.19"/>
        <polyline points="1183.7 1413.26 1121.91 1297.91 1157.61 1272.28 1193.31 1312.56 1168.14 1149.15 1213.45 1137.25 1229.93 1170.66" fill="none" stroke="#000" stroke-linecap="round" stroke-linejoin="round" stroke-width="22.19"/>
        <polyline points="1246.41 1313.94 1231.76 1174.33 1284.86 1162.42 1309.12 1301.12" fill="none" stroke="#000" stroke-linecap="round" stroke-linejoin="round" stroke-width="22.19"/>
        <polyline points="1303.17 1202.71 1331.09 1201.33 1359.47 1263.13 1354.89 1128.55 1418.06 1130.84 1421.72 1285.56" fill="none" stroke="#000" stroke-linecap="round" stroke-linejoin="round" stroke-width="22.19"/>
        <polyline points="1423.56 1191.72 1478.94 1197.67 1478.48 1320.8" fill="none" stroke="#000" stroke-linecap="round" stroke-linejoin="round" stroke-width="22.19"/>
        <polyline points="1464.75 1424.71 1459.26 1336.82 1513.73 1325.38 1522.88 1363.37" fill="none" stroke="#000" stroke-linecap="round" stroke-linejoin="round" stroke-width="22.19"/>
        <polyline points="1511.44 1320.8 1522.43 1215.06 1570.49 1220.56 1557.21 1338.2" fill="none" stroke="#000" stroke-linecap="round" stroke-linejoin="round" stroke-width="22.19"/>
        <polyline points="1563.16 1322.63 1595.21 1325.84 1586.51 1372.53" fill="none" stroke="#000" stroke-linecap="round" stroke-linejoin="round" stroke-width="22.19"/>
        <polyline points="1591.54 1317.6 1622.21 1255.8 1664.78 1278.69 1615.35 1384.88" fill="none" stroke="#000" stroke-linecap="round" stroke-linejoin="round" stroke-width="22.19"/>
        <polyline points="1359.47 1388.55 1343.91 1303.87 1387.39 1283.27 1415.32 1373.9" fill="none" stroke="#000" stroke-linecap="round" stroke-linejoin="round" stroke-width="22.19"/>
        <path d="M1241.79,1384.84c-1.11-3.09-2.22-6.17-3.33-9.26l-4.82-44.08,31.48-22.59" fill="none" stroke="#000" stroke-linecap="round" stroke-linejoin="round" stroke-width="22.19"/>
      </g>
    </g>
    <g id="Layer_8" data-name="Layer 8">
      <path d="M698.21,1632.92c17.52,15.27,24.16,39.06,23,62.27-1.16,23.21-10.55,63.15-20.06,84.35-29.23,65.21-68.16,107.91-116.53,160.51" fill="none" stroke="#000" stroke-linecap="round" stroke-linejoin="round" stroke-width="22.19"/>
      <path d="M417.63,1548.42c-17.75.99-29.54,12.8-39.85,27.28s-16.18,31.56-22.38,48.23c-27.94,75.12-65.11,146.79-110.43,212.89" fill="none" stroke="#000" stroke-linecap="round" stroke-linejoin="round" stroke-width="22.19"/>
      <path d="M421.53,1552.03c5.29,36.48,9.49,66.35,31.1,90.96,21.62,24.61,53.7,39.7,86.44,40.65" fill="none" stroke="#000" stroke-linecap="round" stroke-linejoin="round" stroke-width="22.19"/>
      <g>
        <path d="M778.7,1335.83c6.73.71,13.18,2.78,18.82,6.66,12.72,8.75,18.58,25.16,17.91,40.58-.67,15.42-6.96,30.05-14.39,43.59-18.5,33.7-44.49,62.97-61.54,97.42-15.33,30.99-23.2,65.76-42.65,94.35-33.09,48.65-96.42,71.24-154.95,65.21" fill="none" stroke="#000" stroke-linecap="round" stroke-linejoin="round" stroke-width="22.19"/>
        <path d="M683.25,1415.59c5.13-23.31,18.79-44.49,37.42-59.38" fill="none" stroke="#000" stroke-linecap="round" stroke-linejoin="round" stroke-width="22.19"/>
        <path d="M710.87,1263.61l124.43-190.98,56.29-2.71,18.2,42.92-154.81,251.56-34.51-12.57c-6.22-15.72-12.44-31.45-18.66-47.17" fill="#fae98b" stroke="#000" stroke-linecap="round" stroke-linejoin="round" stroke-width="22.19"/>
        <path d="M421.53,1552.03c-11.07-63.46-43.47-122.35-94.32-161.9-19.34-15.04-21.1-46.35-6.56-66.08,14.54-19.72,41.52-27.8,65.68-23.7,24.16,4.09,45.51,18.77,62.04,36.85,16.54,18.08,28.85,39.53,41.03,60.8" fill="none" stroke="#000" stroke-linecap="round" stroke-linejoin="round" stroke-width="22.19"/>
        <path d="M460.2,1336.23c26.02-16.98,60.77-17.95,89.29-5.62,28.51,12.33,50.83,36.8,63.97,64.95,7.19,15.4,11.89,32.55,9.43,49.37-2.46,16.82-13.22,33.1-29.29,38.63-13.19,4.54-28.11,1.36-40.17-5.65-12.06-7-21.69-17.48-30.54-28.25" fill="none" stroke="#000" stroke-linecap="round" stroke-linejoin="round" stroke-width="22.19"/>
        <path d="M537.61,1321.14c-10.44-28.41-5.48-61.96,12.74-86.13,18.22-24.17,49.11-38.18,79.29-35.97,30.18,2.21,58.7,20.58,73.2,47.14,7.05,12.92,10.88,28.47,6.33,42.47-6.35,19.52-28.06,31.11-48.58,30.69-20.52-.43-39.67-10.66-55.84-23.31" fill="none" stroke="#000" stroke-linecap="round" stroke-linejoin="round" stroke-width="22.19"/>
        <path d="M627.15,1316.07c4.83,38.86,22.83,75.96,50.35,103.82" fill="none" stroke="#000" stroke-linecap="round" stroke-linejoin="round" stroke-width="22.19"/>
        <path d="M524.6,1551.37c18.46-7.45,40.02-6.79,57.99,1.77,17.97,8.56,32.07,24.89,37.91,43.92" fill="none" stroke="#000" stroke-linecap="round" stroke-linejoin="round" stroke-width="22.19"/>
        <line x1="789.28" y1="1234.98" x2="836.26" y2="1156.87" fill="none" stroke="#000" stroke-linecap="round" stroke-linejoin="round" stroke-width="22.19"/>
      </g>
    </g>
  </g>
</svg>